<svg width="48" height="48" viewBox="0 0 48 48" fill="none" xmlns="http://www.w3.org/2000/svg">
<g clip-path="url(#clip0_45_31)">
<mask id="mask0_45_31" style="mask-type:luminance" maskUnits="userSpaceOnUse" x="0" y="0" width="48" height="48">
<path d="M0 0.000141144H47.9999V48H0V0.000141144Z" fill="white"/>
</mask>
<g mask="url(#mask0_45_31)">
<path d="M44.156 37.2153H3.84183C2.10409 37.2153 0.695312 35.8066 0.695312 34.0688V33.4493C0.695312 31.7116 2.10409 30.3028 3.84183 30.3028H44.156C45.8938 30.3028 47.3025 31.7116 47.3025 33.4493V34.0688C47.3025 35.8066 45.8938 37.2153 44.156 37.2153Z" fill="#E94444"/>
<path d="M44.156 24.8589H3.84183C2.10409 24.8589 0.695312 23.4502 0.695312 21.7124V21.0929C0.695312 19.3551 2.10409 17.9463 3.84183 17.9463H44.156C45.8938 17.9463 47.3025 19.3551 47.3025 21.0929V21.7124C47.3025 23.4502 45.8938 24.8589 44.156 24.8589Z" fill="#9E5528"/>
<path d="M47.3019 33.449V34.0686C47.3019 35.8068 45.8938 37.2158 44.1557 37.2158H42.3145C44.0526 37.2158 45.4607 35.8068 45.4607 34.0686V33.449C45.4607 31.7118 44.0526 30.3027 42.3145 30.3027H44.1557C45.8938 30.3027 47.3019 31.7118 47.3019 33.449Z" fill="#D83131"/>
<path d="M47.3019 21.0927V21.7124C47.3019 23.4505 45.8938 24.8586 44.1557 24.8586H42.3145C44.0526 24.8586 45.4607 23.4505 45.4607 21.7124V21.0927C45.4607 19.3555 44.0526 17.9465 42.3145 17.9465H44.1557C45.8938 17.9465 47.3019 19.3555 47.3019 21.0927Z" fill="#904D24"/>
<path d="M23.9991 0.767216C8.28361 0.994652 3.00344 9.5195 1.26035 14.4728C0.663073 16.17 1.93657 17.9463 3.73581 17.9463H44.2621C46.0748 17.9463 47.3319 16.1521 46.7274 14.4432C44.9737 9.48575 39.6834 0.994184 23.9991 0.767216Z" fill="#FE9738"/>
<path d="M44.2631 17.9465H44.039C44.6494 17.2659 44.9006 16.275 44.5603 15.3112C42.8062 10.3528 37.5159 1.86189 21.8316 1.63502C17.7741 1.69314 14.4113 2.30533 11.627 3.26626C14.7844 1.81596 18.8269 0.841898 24 0.766897C39.6844 0.994709 44.9747 9.48562 46.7287 14.4431C47.3325 16.1522 46.0753 17.9465 44.2631 17.9465Z" fill="#FE860A"/>
<path d="M44.1562 37.2154H3.84206C3.84206 37.2154 2.45185 43.9286 10.3632 46.5696C11.7184 47.022 13.1333 47.2327 14.5521 47.2327H33.4463C34.8651 47.2327 36.2798 47.022 37.6351 46.5696C45.5465 43.9286 44.1562 37.2154 44.1562 37.2154Z" fill="#FE9738"/>
<path d="M37.6349 46.5692C36.2793 47.022 34.8646 47.2329 33.4462 47.2329H31.3105C32.7299 47.2329 34.1446 47.022 35.5002 46.5692C43.4108 43.9282 42.0205 37.2158 42.0205 37.2158H44.1561C44.1561 37.2158 45.5464 43.9282 37.6349 46.5692Z" fill="#FE860A"/>
<path d="M44.2299 31.556C44.2299 33.1269 42.4045 33.9786 41.1908 32.9811C40.692 32.571 40.1028 32.2461 39.1691 32.2461C36.639 32.2461 36.639 34.2502 34.1089 34.2502C31.5788 34.2502 31.5788 32.2461 29.0487 32.2461C26.5186 32.2461 26.5186 34.2502 23.9886 34.2502C21.4586 34.2502 21.4586 32.2461 18.9286 32.2461C16.3984 32.2461 16.3984 34.2502 13.8683 34.2502C11.3383 34.2502 11.3383 32.2461 8.80828 32.2461C7.87491 32.2461 7.28588 32.5708 6.78713 32.9807C5.57345 33.9781 3.74805 33.1267 3.74805 31.5557V27.8378H44.2299V31.556Z" fill="#BBEC6C"/>
<path d="M44.2291 27.838V31.5561C44.2291 33.0261 42.6307 33.8661 41.4316 33.1508C41.9613 32.8415 42.342 32.2743 42.342 31.5561V27.838H44.2291Z" fill="#A2E62E"/>
<path d="M3.76758 24.859V27.8656H8.10744C9.01025 27.8656 9.74215 28.5975 9.74215 29.5003V38.1597C9.74215 39.3139 10.6779 40.2498 11.8321 40.2498C12.9865 40.2498 13.9222 39.3139 13.9222 38.1597V29.5003C13.9222 28.5975 14.6541 27.8656 15.5569 27.8656H44.2292V24.859H3.76758Z" fill="#FEE45A"/>
<path d="M44.229 27.8652H42.3418V24.8587H44.229V27.8652Z" fill="#FDDF30"/>
</g>
</g>
<defs>
<clipPath id="clip0_45_31">
<rect width="48" height="48" fill="white"/>
</clipPath>
</defs>
</svg>
