<svg width="48" height="48" viewBox="0 0 48 48" fill="none" xmlns="http://www.w3.org/2000/svg">
<g clip-path="url(#clip0_45_113)">
<path d="M30.1699 18.9454C28.3368 20.794 25.7648 28.9535 25.8322 32.9049C25.534 33.4417 24.3673 33.8721 23.0683 34.0147C21.3337 34.2039 19.3658 33.8902 18.9043 32.6509C15.4092 23.291 17.0218 15.0667 17.0218 15.0667C17.0218 15.0667 22.5808 15.8185 26.5114 16.8246C29.0343 17.4726 30.8855 18.222 30.1699 18.9454Z" fill="#AB1414"/>
<path d="M30.1707 18.9455C28.3376 20.7942 25.7656 28.9536 25.833 32.9051C25.5348 33.4418 24.368 33.8722 23.069 34.0148C22.6698 28.601 23.6239 23.0836 25.8615 18.134C26.0612 17.6907 26.2737 17.2499 26.5123 16.8247C29.0351 17.4728 30.8863 18.2221 30.1707 18.9455Z" fill="#871010"/>
<path d="M32.3819 17.1872L32.3839 17.1876C31.7363 16.4623 31.7483 15.4326 31.7848 14.3917L17.2043 11.9719C16.7554 12.8246 16.1971 13.6418 15.2804 14.3424L15.2829 14.3428C15.1798 14.4697 15.1127 14.606 15.0896 14.7525C14.8678 16.1564 18.5618 17.9063 23.3401 18.6609C28.1185 19.4156 32.1718 18.8893 32.3936 17.4854C32.409 17.3875 32.4036 17.2879 32.3819 17.1872Z" fill="#CCCCCC"/>
<path d="M31.7852 14.3917L17.2047 11.9719C16.9057 12.5398 16.5554 13.0909 16.0859 13.6033C16.1605 13.9407 16.3544 14.379 16.6025 14.6018L16.5105 15.1363L17.0352 14.9319C17.2178 15.0536 17.425 15.1748 17.6552 15.2946L17.7268 15.8565L18.2151 15.5633C18.4153 15.6523 18.6286 15.7396 18.8521 15.8254L18.9902 16.3795L19.4518 16.0423C19.6599 16.1131 19.8753 16.1824 20.0977 16.2497L20.2761 16.7934L20.7164 16.4275C20.9335 16.4866 21.1514 16.5427 21.3701 16.5958L21.5787 17.1286L21.9994 16.7404C22.2155 16.7874 22.4356 16.8321 22.6588 16.875L22.8934 17.3979L23.2963 16.9905C23.4064 17.0092 23.5168 17.0277 23.6282 17.0453C23.74 17.0629 23.8509 17.0794 23.9616 17.0956L24.2201 17.6074L24.605 17.1824C24.8308 17.2103 25.0543 17.2356 25.2747 17.2575L25.5555 17.7565L25.9185 17.3139C26.1475 17.331 26.372 17.3446 26.5926 17.3551L26.8986 17.8389L27.2351 17.3766C27.4673 17.381 27.6933 17.3815 27.9129 17.3781L28.2483 17.841L28.5496 17.3565C28.7785 17.3447 29.0071 17.327 29.235 17.3035L29.6086 17.7329L29.8496 17.2205C30.1055 17.1776 30.3399 17.1261 30.5511 17.0667L30.9874 17.4227L31.0647 16.886C31.3907 16.7411 31.7157 16.3984 31.8708 16.1163C31.7556 15.5815 31.7641 14.9895 31.7852 14.3917Z" fill="#E0E0E0"/>
<path d="M24.0959 15.5862C28.1682 16.2225 31.6174 15.7919 31.7998 14.6244C31.9822 13.457 28.8288 11.9948 24.7564 11.3586C20.6841 10.7223 17.2349 11.1529 17.0526 12.3204C16.8702 13.4878 20.0236 14.95 24.0959 15.5862Z" fill="#CCCCCC"/>
<path d="M29.0455 14.1777C28.9939 14.5556 28.434 14.8235 27.5683 14.9575C26.6202 15.1086 25.308 15.0984 23.8755 14.8922C22.3468 14.6758 21.0105 14.2842 20.1415 13.8445C19.451 13.4942 19.0593 13.1094 19.1075 12.7624C19.159 12.4018 19.6675 12.1407 20.4678 11.9998C21.4227 11.8315 22.7865 11.8315 24.2809 12.0445C25.7477 12.254 27.0428 12.6251 27.9085 13.0442C28.6642 13.4082 29.097 13.8136 29.0455 14.1777Z" fill="#A39B97"/>
<path d="M28.0435 12.2781L27.9096 13.0441L27.5695 14.9576C26.6214 15.1087 25.3091 15.0985 23.8766 14.8923C22.348 14.6758 21.0116 14.2842 20.1426 13.8446L20.4689 11.9998L20.572 11.4089L28.0435 12.2781Z" fill="#C2C2C2"/>
<path d="M24.1849 12.9974C26.25 13.2246 27.9812 12.8893 28.0518 12.2485C28.1223 11.6076 26.5054 10.9039 24.4403 10.6766C22.3752 10.4494 20.644 10.7847 20.5735 11.4255C20.503 12.0664 22.1199 12.7701 24.1849 12.9974Z" fill="#B8B8B8"/>
<path d="M26.0705 12.0375C26.0534 12.2058 25.7888 12.3295 25.3869 12.388C25.2083 12.4154 25.0022 12.4257 24.7755 12.4257C24.5987 12.4224 24.4222 12.4109 24.2464 12.3914C24.1729 12.3842 24.0996 12.375 24.0266 12.364C23.8342 12.333 23.6521 12.2987 23.4872 12.254C22.9066 12.0994 22.5219 11.8659 22.546 11.6494C22.5735 11.3849 23.2055 11.2303 24.0163 11.2715C24.1296 11.275 24.2464 11.2853 24.3666 11.299C24.4525 11.3093 24.5384 11.3196 24.6208 11.3333C24.8647 11.371 25.0879 11.4191 25.2838 11.481C25.4727 11.5394 25.6376 11.6047 25.7647 11.6769C25.9709 11.7902 26.0842 11.9173 26.0705 12.0375Z" fill="#8F8783"/>
<path d="M37.7303 12.0512C37.7147 12.0746 37.6992 12.1004 37.6862 12.1238C37.6266 12.2223 37.5488 12.3182 37.4529 12.409C37.378 12.484 37.2984 12.5542 37.2144 12.619C36.994 12.7901 36.7088 12.956 36.3458 13.0986C32.0807 10.6121 29.5398 7.73676 29.1742 7.07038C28.9331 6.62957 28.6842 6.34185 28.4482 6.18623C28.4017 6.15686 28.3532 6.13086 28.303 6.10841C28.2797 6.09801 28.2589 6.09023 28.2382 6.08245C28.2227 6.07729 28.2071 6.07204 28.1942 6.06951C28.1569 6.05903 28.1187 6.0521 28.0801 6.04879C28.0404 6.04443 28.0003 6.04531 27.9608 6.05141C27.953 6.05141 27.9479 6.05141 27.9401 6.05404C27.9027 6.05864 27.866 6.06822 27.8312 6.08254C27.8285 6.07991 27.826 6.08254 27.8234 6.08516C27.7935 6.09394 27.7648 6.10611 27.7378 6.12145C27.7222 6.12923 27.7093 6.13963 27.6963 6.14741C27.6608 6.16993 27.627 6.19507 27.5952 6.2226C27.5952 6.22523 27.5926 6.22523 27.59 6.22776C27.5718 6.24595 27.5511 6.26404 27.533 6.28476V6.28738C27.5086 6.31153 27.486 6.33754 27.4656 6.3652C27.4449 6.39116 27.4267 6.41704 27.4086 6.44301C27.3646 6.51041 27.323 6.5856 27.2868 6.66595C27.2142 6.8241 27.1571 7.00823 27.113 7.2156C27.113 7.2156 26.8641 9.42979 25.7648 11.6778C25.6483 11.9197 25.522 12.1567 25.3863 12.3883C25.2099 12.4168 25.0025 12.4245 24.777 12.4245C24.6645 12.4222 24.5521 12.4161 24.4399 12.4064C24.3758 12.4036 24.3118 12.3984 24.248 12.3908C24.1702 12.3856 24.1003 12.3752 24.0276 12.3649C23.8357 12.3338 23.6517 12.2975 23.4883 12.2534C23.6796 11.9342 23.8561 11.6063 24.0172 11.2708C24.6291 10.0133 25.324 8.96057 25.8243 6.19926C25.8425 6.10588 25.871 6.00735 25.9125 5.90891C25.941 5.83888 25.9773 5.76632 26.0162 5.69629C26.0343 5.66779 26.0524 5.63666 26.0732 5.60816C26.1146 5.54076 26.1613 5.47598 26.2131 5.4111C26.2167 5.40532 26.221 5.40008 26.2261 5.39554C26.2968 5.3087 26.374 5.22723 26.4568 5.15179C26.4672 5.13885 26.4801 5.12845 26.4931 5.11551C26.5695 5.04754 26.65 4.98433 26.7342 4.92623C26.7368 4.9236 26.742 4.92107 26.7446 4.91845H26.7472C26.8362 4.85614 26.9299 4.80067 27.0273 4.75251L27.0584 4.73695C27.1595 4.69026 27.2632 4.64882 27.3721 4.6177C27.3777 4.61477 27.3839 4.61301 27.3903 4.61254C27.4971 4.58173 27.6064 4.56006 27.717 4.54776C27.7325 4.54513 27.7481 4.54513 27.7637 4.54513C27.8845 4.53392 28.0062 4.53565 28.1267 4.55029C28.1422 4.55029 28.1578 4.55291 28.1759 4.55807C28.3055 4.57363 28.4377 4.60476 28.57 4.65398C28.99 4.80698 29.423 5.11813 29.843 5.6496C30.7428 6.79045 32.7963 8.97876 35.9594 10.4048C36.5141 10.6545 37.0829 10.8718 37.6628 11.0556C37.6629 11.0556 38.0777 11.4083 37.7303 12.0512Z" fill="#F0D3D3"/>
<path d="M37.7302 12.0512C37.7147 12.0746 37.6991 12.1004 37.6862 12.1238C37.6178 12.2262 37.5396 12.3217 37.4528 12.409C37.3779 12.4841 37.2983 12.5542 37.2143 12.619C35.8635 11.9475 34.7304 11.2733 33.7815 10.6251C31.8498 9.30801 30.6727 8.10229 29.9701 7.27523C29.5811 6.8137 29.3374 6.47142 29.1948 6.29254C29.0471 6.10589 28.8941 5.95804 28.7359 5.8492C28.6919 5.81807 28.6478 5.78957 28.6063 5.76623C28.5878 5.75335 28.5678 5.74289 28.5467 5.73511V5.73248C28.5221 5.7202 28.497 5.70894 28.4715 5.69873C28.4326 5.68054 28.3937 5.66498 28.3547 5.65204H28.3521L28.3495 5.64942C28.3235 5.64164 28.295 5.63386 28.2692 5.62607C28.2354 5.61829 28.2044 5.61051 28.1706 5.60536H28.1628C28.1266 5.59757 28.0903 5.59495 28.0565 5.59242C28.0254 5.58979 27.9969 5.58726 27.9658 5.58979H27.9632C27.932 5.58979 27.8984 5.59242 27.8673 5.59757C27.8335 5.6002 27.7998 5.60536 27.7687 5.61051V5.61314C27.7324 5.62092 27.6962 5.6287 27.6624 5.64164C27.6495 5.64679 27.6339 5.65204 27.621 5.6572C27.5746 5.6726 27.5302 5.6935 27.4888 5.71945C27.4575 5.73321 27.4279 5.75061 27.4007 5.77129H27.398C27.3851 5.77907 27.3747 5.78948 27.3618 5.79979C27.3124 5.83354 27.2684 5.87236 27.2243 5.91904L27.2217 5.92167H27.2191C27.2035 5.93723 27.1906 5.95279 27.1776 5.96836C27.1264 6.02389 27.0812 6.08474 27.0428 6.14986C27.0402 6.15248 27.0377 6.15501 27.0377 6.15764C26.9158 6.35207 26.825 6.59582 26.781 6.88101C26.6591 7.61217 26.2676 9.48154 25.2849 11.4806C25.1266 11.801 24.9571 12.1158 24.7767 12.4244C24.6642 12.422 24.5518 12.4159 24.4397 12.4062C24.3755 12.4034 24.3115 12.3982 24.2478 12.3906C24.1699 12.3854 24.1 12.375 24.0273 12.3647C24.2478 12.0199 24.4422 11.6725 24.6211 11.3328C25.9097 8.86973 26.2778 6.55954 26.2804 6.52064L26.3738 6.17582C26.4286 6.07304 26.4919 5.97503 26.5631 5.88286V5.88023C26.6124 5.81279 26.6661 5.74868 26.7239 5.68832C26.7421 5.67014 26.7576 5.65204 26.7757 5.63386C26.8327 5.57939 26.8924 5.52492 26.9546 5.47832C26.9593 5.47169 26.9655 5.46634 26.9728 5.46276H26.9754V5.46014C27.0287 5.41718 27.085 5.3782 27.144 5.34351C27.1751 5.32279 27.2036 5.30723 27.2347 5.28904C27.2814 5.26307 27.3281 5.24236 27.3773 5.22164C27.4009 5.21058 27.4251 5.20106 27.4499 5.19314C27.5121 5.16733 27.5763 5.14651 27.6418 5.13089C27.66 5.12826 27.6781 5.12311 27.6963 5.12048C27.7637 5.10492 27.8337 5.09714 27.9037 5.09198C27.9297 5.08936 27.9582 5.08936 27.9841 5.08936C28.0566 5.08936 28.1293 5.09451 28.2018 5.10492C28.2174 5.10754 28.2303 5.10754 28.2459 5.1127C28.3237 5.12564 28.4041 5.14645 28.4844 5.17232V5.17523C28.5026 5.18039 28.5182 5.18564 28.5363 5.19079L28.5389 5.19342C28.5467 5.19604 28.57 5.20636 28.5985 5.21939C28.627 5.22979 28.653 5.24273 28.6815 5.25829C28.7255 5.27901 28.7722 5.30498 28.806 5.32307V5.3257C29.0393 5.46051 29.2727 5.66536 29.4957 5.94801C29.4957 5.94801 31.0825 8.53045 34.8628 10.6928C35.7078 11.1801 36.6594 11.6416 37.7302 12.0512Z" fill="#BF2D2D"/>
<path d="M28.806 5.27367V5.32552C28.8086 5.47074 28.8034 5.59514 28.78 5.70408C28.7696 5.75592 28.7567 5.80261 28.736 5.84667V5.8493C28.6945 5.94521 28.6323 6.03342 28.5415 6.11639C28.5078 6.14489 28.4768 6.16824 28.4482 6.18642C28.3341 6.25899 28.2771 6.23049 28.2304 6.15267C28.2252 6.13974 28.2175 6.12671 28.2122 6.10861L28.2382 6.08264C28.3315 5.98674 28.4248 5.88296 28.4715 5.69892C28.4741 5.68852 28.4767 5.67821 28.4819 5.66517C28.493 5.61388 28.5008 5.56193 28.5053 5.50964C28.5079 5.44739 28.5079 5.37999 28.5026 5.3048C28.5 5.26074 28.4922 5.21405 28.4845 5.17514V5.17252C28.4799 5.14711 28.4739 5.122 28.4663 5.09733C28.3989 4.83024 28.2407 4.64105 28.1266 4.5503C28.1084 4.53619 28.0894 4.5232 28.0696 4.51139C28.0645 4.49846 28.0645 4.48805 28.0645 4.47764V4.47249C28.0645 4.37396 28.2278 4.33505 28.4093 4.48805C28.4686 4.53751 28.5225 4.59314 28.57 4.65399C28.7075 4.83286 28.8009 5.06105 28.806 5.27367Z" fill="#F0D3D3"/>
<path d="M28.573 5.55101C28.573 5.61326 28.5652 5.67288 28.547 5.73251V5.73513C28.521 5.82851 28.4718 5.91926 28.3966 6.01254C28.3629 6.05398 28.3318 6.0851 28.3032 6.10845C28.2821 6.12758 28.2574 6.14253 28.2307 6.15251C28.1944 6.16807 28.1633 6.16029 28.1348 6.13957C28.1114 6.12401 28.0907 6.10067 28.07 6.06701V6.06438C28.0726 6.06176 28.0752 6.0566 28.0778 6.05398C28.0778 6.05135 28.0804 6.05135 28.0804 6.04882C28.0804 6.04629 28.0804 6.0462 28.083 6.04367C28.166 5.9322 28.249 5.81295 28.2697 5.6262C28.2723 5.61842 28.2723 5.60801 28.2723 5.5977C28.2775 5.5407 28.2775 5.47582 28.2723 5.40326C28.2645 5.34879 28.2567 5.29179 28.2412 5.22954C28.2313 5.18713 28.2183 5.14552 28.2023 5.10504C28.1972 5.0842 28.1894 5.06414 28.1789 5.04542C28.0597 4.76801 27.8419 4.59682 27.7174 4.5476C27.7122 4.54245 27.707 4.54245 27.7018 4.53982C27.6949 4.52853 27.6897 4.51631 27.6863 4.50354C27.6733 4.41017 27.834 4.34276 28.0311 4.45432C28.0415 4.45948 28.0544 4.46726 28.0648 4.47504C28.1037 4.49838 28.14 4.52688 28.1763 4.55801C28.3552 4.70576 28.4926 4.92101 28.5315 5.14395L28.5393 5.19063V5.19326C28.5626 5.32798 28.5781 5.4447 28.573 5.55101Z" fill="#E0C4C4"/>
<path d="M28.356 5.65227C28.3509 5.76899 28.3171 5.88299 28.2419 6.00234C28.2282 6.02605 28.2126 6.04859 28.1952 6.06974C28.1779 6.09513 28.1579 6.11861 28.1356 6.13977C28.0863 6.17605 28.0449 6.18121 28.0034 6.16049C27.9827 6.15008 27.962 6.13199 27.9412 6.10865C27.9345 6.1023 27.9284 6.09537 27.923 6.08793C27.9281 6.07752 27.9359 6.06458 27.9412 6.05418L27.9801 5.97637C28.0294 5.87521 28.0682 5.75596 28.0579 5.59265C28.0579 5.58224 28.0553 5.57193 28.0553 5.5589C28.0459 5.4849 28.0294 5.41197 28.006 5.34112C27.9956 5.30737 27.9827 5.27108 27.9698 5.2348C27.9513 5.18593 27.9296 5.1383 27.905 5.09221C27.892 5.07149 27.879 5.0533 27.8661 5.03258C27.7157 4.79924 27.5057 4.66443 27.3734 4.61774C27.3584 4.61102 27.3428 4.6058 27.3267 4.60218C27.324 4.59932 27.3222 4.59569 27.3216 4.59177C27.2515 4.48808 27.4072 4.38177 27.643 4.4803C27.6586 4.48546 27.6715 4.49324 27.6871 4.50365C27.7131 4.51405 27.739 4.52699 27.7649 4.54518C27.9802 4.66968 28.1668 4.88221 28.2472 5.11302C28.2498 5.11565 28.2498 5.11565 28.2498 5.11818C28.2887 5.23227 28.3198 5.33333 28.3354 5.42933C28.3534 5.50705 28.3612 5.57962 28.356 5.65227Z" fill="#F0D3D3"/>
<path d="M28.1059 5.99452C28.0982 6.01271 28.0904 6.02827 28.0826 6.04383C28.08 6.04646 28.08 6.04646 28.08 6.04899C28.08 6.05152 28.0773 6.05161 28.0773 6.05415C28.0747 6.0593 28.0722 6.06455 28.0696 6.06708C28.0462 6.11115 28.0255 6.13965 28.0022 6.16046C27.9684 6.19421 27.9321 6.20199 27.8985 6.19158H27.8958C27.87 6.1838 27.8466 6.16571 27.8207 6.14236C27.8157 6.13973 27.8114 6.1362 27.8077 6.13196L27.8233 6.08527C27.8284 6.07486 27.8337 6.06193 27.8362 6.04899V6.04636C27.8803 5.92186 27.9114 5.78452 27.8674 5.59777C27.8647 5.58483 27.8622 5.5718 27.8569 5.55886C27.8388 5.49146 27.8103 5.4188 27.7688 5.33846C27.7637 5.32027 27.7533 5.30218 27.7429 5.28399C27.7135 5.2303 27.6796 5.17913 27.6418 5.13099C27.6346 5.12031 27.6258 5.11072 27.6159 5.10249C27.4215 4.87177 27.1648 4.77577 27.0378 4.76799C27.0326 4.76283 27.0274 4.75758 27.0274 4.75243C27.0204 4.74595 27.0151 4.73796 27.0118 4.72908C26.9833 4.64349 27.1103 4.54758 27.3203 4.59165C27.3229 4.59165 27.3281 4.59427 27.3307 4.59427C27.3514 4.59943 27.3696 4.60468 27.3903 4.61246C27.6185 4.68249 27.8415 4.85096 27.966 5.06105C27.9711 5.06883 27.9789 5.07661 27.9815 5.08702C27.9842 5.08702 27.9842 5.08702 27.9842 5.08965C27.9893 5.10005 27.9971 5.11299 28.0024 5.1234C28.0438 5.20636 28.0775 5.28418 28.106 5.35936C28.1398 5.44496 28.163 5.5253 28.1708 5.60565C28.1837 5.73005 28.1682 5.85455 28.1059 5.99452Z" fill="#E0C4C4"/>
<path d="M27.9791 5.97634C27.9791 5.9919 27.974 6.01009 27.9687 6.02556C27.9661 6.03334 27.9636 6.04375 27.961 6.05153C27.9532 6.07225 27.948 6.09043 27.9402 6.10853C27.9273 6.14228 27.9117 6.17078 27.8988 6.1915H27.8962C27.8624 6.23818 27.8236 6.25112 27.7796 6.24334C27.7609 6.23686 27.7427 6.22906 27.7251 6.22C27.7121 6.21222 27.6991 6.20443 27.6862 6.19403C27.6888 6.17847 27.694 6.1629 27.6966 6.14734C27.7121 6.07993 27.7251 6.00737 27.7251 5.92956V5.92703C27.7251 5.84406 27.7095 5.75068 27.6628 5.64184C27.6622 5.63436 27.6595 5.6272 27.6551 5.62112C27.619 5.54014 27.5738 5.46357 27.5202 5.39293C27.5151 5.38253 27.5073 5.37222 27.4995 5.36181C27.4606 5.30997 27.4217 5.26328 27.3776 5.22184C27.3692 5.21568 27.3614 5.20875 27.3543 5.20112C27.1339 5.00143 26.8747 4.92887 26.7346 4.92625H26.7061C26.7035 4.92362 26.701 4.92109 26.6983 4.92109C26.6024 4.83812 26.7268 4.6929 26.981 4.72403C26.9914 4.72403 27.0017 4.72665 27.0121 4.72918L27.0588 4.73697C27.2948 4.78365 27.5384 4.92625 27.694 5.11553C27.694 5.11553 27.6967 5.11815 27.6967 5.12068C27.7122 5.13625 27.7252 5.15443 27.7381 5.17253C27.7742 5.22509 27.8088 5.27871 27.8418 5.33331C27.8963 5.42143 27.9377 5.5044 27.9663 5.58737V5.59C28.005 5.71187 28.0154 5.83365 27.9791 5.97634Z" fill="#F0D3D3"/>
<path d="M27.8363 6.04627V6.05405C27.8337 6.06446 27.8337 6.07224 27.8311 6.08255C27.8285 6.10327 27.8234 6.12399 27.8207 6.14218C27.8103 6.18624 27.7974 6.21999 27.7793 6.24333C27.7508 6.2978 27.7067 6.30811 27.6548 6.29518C27.6392 6.29255 27.6211 6.28477 27.6003 6.27446C27.5977 6.27446 27.5925 6.27183 27.5874 6.2693C27.5874 6.25636 27.59 6.2408 27.59 6.22786C27.59 6.21746 27.59 6.20968 27.5926 6.19936C27.6004 6.05677 27.5978 5.90377 27.489 5.71974C27.4863 5.71458 27.4838 5.7068 27.4785 5.70155C27.4423 5.63677 27.3904 5.56936 27.3204 5.49671C27.3126 5.4863 27.3048 5.47852 27.2945 5.46821C27.2494 5.42096 27.199 5.37918 27.1441 5.34371C27.1312 5.33077 27.1182 5.32299 27.1052 5.31521C26.859 5.15968 26.597 5.13886 26.4751 5.16483C26.4674 5.16221 26.4622 5.15705 26.457 5.15189C26.4465 5.14411 26.4388 5.13633 26.4362 5.12593C26.3973 5.05074 26.4932 4.93402 26.6981 4.92108C26.7007 4.91846 26.7059 4.91846 26.711 4.91846H26.7473C26.991 4.91846 27.2633 5.01961 27.4473 5.19071C27.45 5.19071 27.45 5.19333 27.45 5.19333C27.4681 5.20889 27.4837 5.22446 27.4993 5.24264C27.5382 5.28408 27.5718 5.32561 27.6056 5.36452C27.673 5.45011 27.7275 5.52783 27.7689 5.6108V5.61343C27.8337 5.74299 27.8595 5.8778 27.8363 6.04627Z" fill="#E0C4C4"/>
<path d="M27.7371 6.02805C27.7397 6.06434 27.7397 6.09546 27.7371 6.12143C27.7371 6.16296 27.7319 6.19399 27.7242 6.21996C27.7086 6.26149 27.6852 6.28474 27.6541 6.29515C27.6366 6.30096 27.618 6.30273 27.5997 6.3003C27.5789 6.29768 27.5582 6.29252 27.5322 6.28737V6.28474C27.5141 6.13437 27.496 5.97359 27.3612 5.79987C27.356 5.79471 27.3507 5.78693 27.343 5.77915C27.2925 5.71987 27.236 5.66599 27.1744 5.61837C27.1484 5.60018 27.1199 5.57946 27.0914 5.55874C27.0477 5.52853 27.0018 5.50167 26.954 5.4784C26.9384 5.47062 26.9229 5.46546 26.9099 5.46021C26.6247 5.33834 26.3447 5.36946 26.228 5.41877C26.2228 5.41615 26.2176 5.41615 26.2124 5.41099C26.2073 5.41099 26.202 5.40837 26.1969 5.40321H26.1942C26.1164 5.34358 26.1891 5.18543 26.412 5.13096C26.4198 5.12833 26.4276 5.12833 26.4354 5.1258C26.4536 5.12065 26.4717 5.11802 26.4924 5.1154C26.7335 5.08165 27.0109 5.13612 27.2132 5.27871H27.2184C27.2235 5.28387 27.2288 5.28649 27.2339 5.28912C27.2391 5.29427 27.2417 5.2969 27.2469 5.29952C27.3091 5.34621 27.3687 5.3929 27.418 5.43696C27.5009 5.50699 27.5683 5.57955 27.6202 5.65737C27.672 5.73771 27.7083 5.8233 27.7239 5.92699V5.92962C27.7319 5.96065 27.7346 5.9943 27.7371 6.02805Z" fill="#F0D3D3"/>
<path d="M27.6011 6.27454V6.30051C27.6011 6.42754 27.5518 6.46645 27.4766 6.46645C27.4558 6.46645 27.4351 6.46382 27.4118 6.45866C27.4118 6.45351 27.4092 6.44826 27.4092 6.4431C27.3754 6.29273 27.3417 6.13195 27.1784 5.96863C27.1758 5.96601 27.1707 5.96348 27.168 5.95823C27.1171 5.91082 27.0624 5.86747 27.0047 5.82857C26.9762 5.81038 26.9451 5.78966 26.9113 5.77157C26.8522 5.73749 26.7896 5.70968 26.7247 5.6886C26.704 5.68082 26.6806 5.67566 26.6599 5.66788C26.3877 5.59785 26.1439 5.6497 26.0376 5.70416C26.0298 5.70154 26.022 5.69901 26.0169 5.69638C26.0069 5.69319 25.9978 5.68781 25.9902 5.68064C25.9825 5.67348 25.9766 5.6647 25.9728 5.65495C25.9443 5.58491 26.0169 5.46304 26.1957 5.40341H26.1984C26.2071 5.39847 26.2169 5.3958 26.2269 5.39563C26.4576 5.3256 26.7376 5.34641 26.9607 5.45526C26.9658 5.45263 26.9711 5.45526 26.9762 5.46041V5.46304C26.9996 5.47082 27.0229 5.48376 27.0436 5.49679C27.0981 5.53054 27.1473 5.5642 27.194 5.59795C27.2743 5.65241 27.3417 5.70941 27.3988 5.77166C27.5 5.8806 27.5648 6.00763 27.5907 6.18388C27.5907 6.18904 27.5934 6.19429 27.5934 6.19945C27.5955 6.20703 27.5964 6.21492 27.596 6.22279C27.5984 6.24088 27.6011 6.25898 27.6011 6.27454Z" fill="#E0C4C4"/>
<path d="M27.2863 6.66601C27.2526 6.5027 27.2216 6.33152 27.0401 6.16042L27.0374 6.1578C26.9897 6.11135 26.9377 6.06965 26.8819 6.0333C26.8534 6.01258 26.8196 5.99439 26.786 5.97367C26.7108 5.93214 26.633 5.89848 26.5631 5.88292C26.2804 5.7948 26.0237 5.8518 25.9122 5.90889C25.8033 5.88555 25.8189 5.74811 25.9719 5.65483C26.003 5.63411 26.0366 5.62108 26.073 5.60814C26.2908 5.53558 26.5553 5.54073 26.7757 5.63411C26.8258 5.65164 26.8737 5.67515 26.9183 5.70414C26.9597 5.73011 27.0012 5.75598 27.0375 5.77933C27.101 5.82288 27.1617 5.87051 27.219 5.92192H27.2216C27.3513 6.03864 27.4316 6.17345 27.4654 6.36526C27.4654 6.37042 27.468 6.3782 27.468 6.38598C27.4732 6.41711 27.4758 6.44045 27.4758 6.46633C27.4886 6.65823 27.4108 6.68673 27.2863 6.66601Z" fill="#F0D3D3"/>
<path d="M28.806 5.32175C28.8095 5.53475 28.7991 5.70303 28.7373 5.84731C28.6779 5.80383 28.6147 5.76589 28.5484 5.73397C28.5365 5.67509 28.4079 5.60928 28.3525 5.65147C28.3299 5.59437 28.2056 5.56944 28.1671 5.60684C28.1394 5.55322 28.0067 5.53766 27.9644 5.58969C27.9195 5.53494 27.7894 5.55397 27.7686 5.61031C27.7298 5.58594 27.6303 5.61678 27.6209 5.65841C27.5756 5.63684 27.428 5.71512 27.4011 5.77175C27.3745 5.74241 27.2481 5.83222 27.2225 5.92287C27.1921 5.91912 27.0536 6.06537 27.0404 6.15987C26.9785 6.098 26.8961 6.03622 26.7862 5.97434C26.7107 5.93309 26.6351 5.89878 26.5629 5.88162C26.5392 5.73697 26.6989 5.60581 26.7759 5.63431C26.7629 5.55809 26.9057 5.41372 26.9751 5.46256C26.9889 5.34331 27.2181 5.24937 27.2362 5.28744C27.3034 5.20934 27.3748 5.18187 27.4492 5.19125C27.4782 5.12009 27.6529 5.0675 27.6932 5.11906C27.7221 5.03722 27.943 4.98809 27.9817 5.08812H27.9852C28.0573 4.99653 28.2325 5.02437 28.2463 5.11222C28.3338 5.00966 28.5277 5.08972 28.5383 5.19125C28.538 5.19125 28.7166 5.27019 28.806 5.32175Z" fill="#AB2828"/>
<path d="M37.7299 12.0512C37.7144 12.0745 37.6988 12.1004 37.6859 12.1238C37.6262 12.2223 37.5484 12.3182 37.4525 12.4089C37.3776 12.484 37.298 12.5542 37.214 12.6189C36.9936 12.79 36.7084 12.956 36.3454 13.0986C32.0803 10.612 29.5394 7.73672 29.1738 7.07035C28.9327 6.62953 28.6838 6.34182 28.4478 6.18619C28.3337 6.25875 28.2767 6.23025 28.23 6.15244C28.1938 6.168 28.1626 6.16022 28.1341 6.1395C28.0848 6.17578 28.0434 6.18094 28.002 6.16022C27.9682 6.19397 27.9319 6.20175 27.8983 6.19135H27.8956C27.8619 6.23803 27.8231 6.25097 27.779 6.24319C27.7505 6.29766 27.7065 6.30797 27.6545 6.29503C27.637 6.30085 27.6184 6.30261 27.6 6.30019C27.6 6.42722 27.5508 6.46613 27.4755 6.46613C27.4885 6.65803 27.4108 6.68653 27.2863 6.66582C27.2137 6.82397 27.1566 7.0081 27.1125 7.21547C27.1125 7.21547 26.8636 9.42966 25.7643 11.6777C25.6478 11.9195 25.5215 12.1565 25.3858 12.3881C25.2094 12.4166 25.002 12.4244 24.7765 12.4244C24.664 12.422 24.5516 12.416 24.4395 12.4062C25.2847 10.8038 25.9511 9.10819 26.4281 7.36069C26.55 6.90957 26.6614 6.44541 26.8818 6.03319C26.8845 6.02541 26.8896 6.015 26.8948 6.00732C26.9285 5.94507 26.9648 5.88544 27.0037 5.82844C27.0141 5.81025 27.0244 5.79469 27.0374 5.77913C27.0789 5.72213 27.123 5.66766 27.1748 5.61835C27.18 5.61319 27.1852 5.60541 27.193 5.59763C27.2319 5.56135 27.276 5.52507 27.32 5.49647C27.3511 5.47313 27.3848 5.45494 27.4185 5.43685C27.4513 5.41997 27.4851 5.40525 27.5197 5.39278C27.5482 5.38238 27.5767 5.37207 27.6053 5.36428C27.6598 5.35135 27.7142 5.34094 27.7686 5.33841C27.7927 5.33539 27.8169 5.33367 27.8412 5.33325C27.8957 5.33065 27.9504 5.33325 28.0045 5.34103C28.0382 5.34619 28.0719 5.35144 28.1056 5.35922C28.1626 5.36963 28.2171 5.38519 28.2716 5.40328C28.2923 5.41107 28.3131 5.41885 28.3338 5.42916C28.3831 5.44735 28.4297 5.46807 28.4764 5.49394C28.4868 5.4991 28.4971 5.50435 28.5049 5.5095C28.5283 5.52244 28.5516 5.53547 28.5723 5.55094C28.6449 5.595 28.7149 5.64685 28.7797 5.70394C28.9664 5.85694 29.1271 6.04622 29.2775 6.23803C29.5342 6.56475 29.7494 6.9225 29.9698 7.27519C30.1746 7.60707 30.3795 7.93632 30.6206 8.23707C31.1106 8.8516 31.6136 9.47382 32.2541 9.9405C32.7052 10.2698 33.2341 10.5083 33.7813 10.625C34.1391 10.7002 34.5046 10.7261 34.8625 10.6924C35.1283 10.6692 35.3899 10.6108 35.6403 10.5187C35.7466 10.4798 35.853 10.4408 35.9593 10.4046C36.514 10.6543 37.0828 10.8716 37.6627 11.0554C37.6625 11.0556 38.0774 11.4083 37.7299 12.0512Z" fill="black" fill-opacity="0.0627451"/>
<path d="M35.0239 32.1956C34.9476 32.365 34.8644 32.5312 34.7747 32.6939L34.7727 32.6959C34.6295 32.9587 34.4706 33.2178 34.3077 33.4688C33.8682 34.1418 33.3895 34.7578 33.0305 35.2522C32.9696 35.3366 32.9089 35.419 32.8461 35.5014C32.6457 35.7738 32.4396 36.042 32.2281 36.3058C32.0381 36.5434 31.8438 36.7776 31.6454 37.0082C31.5567 37.114 31.4658 37.218 31.3727 37.3201C31.0859 37.6479 30.7902 37.9678 30.4859 38.2794C30.3074 38.4619 30.1269 38.6424 29.9444 38.8209C26.7485 41.9286 21.8241 44.173 17.3079 43.4922C15.6167 43.2372 13.6097 42.5878 12.4188 41.2988C11.9793 40.8241 11.6909 40.261 11.6595 39.6018C11.6477 39.3468 11.6694 39.0956 11.7026 38.8445C11.7281 38.6306 11.7635 38.4187 11.787 38.2049C11.7904 38.1782 11.7963 38.152 11.8046 38.1264C11.808 38.1155 11.8126 38.105 11.8183 38.095C11.9282 37.8713 12.2814 37.9656 12.5403 38.0166C12.5933 38.0264 12.6423 38.0342 12.6855 38.0381C12.7189 38.0401 12.7523 38.044 12.7855 38.044C12.8051 38.046 12.8229 38.048 12.8424 38.048C12.9405 38.0539 13.0406 38.0578 13.1387 38.0578C13.276 38.0578 13.4134 38.0499 13.5488 38.0343C13.6875 38.017 13.8246 37.9888 13.9588 37.9499C14.0068 37.9355 14.054 37.9185 14.1001 37.8989C14.1828 37.8674 14.2628 37.8293 14.3394 37.7851C14.3845 37.7596 14.4297 37.7341 14.4748 37.7046C14.5179 37.6772 14.5612 37.6477 14.6043 37.6183C14.8044 37.479 14.9986 37.3201 15.1909 37.1691C15.2517 37.124 15.3106 37.0768 15.3714 37.0337C15.4322 36.9906 15.4911 36.9493 15.5518 36.9101C15.6538 36.8434 15.7578 36.7787 15.8618 36.7139C15.9853 36.6354 16.109 36.5589 16.2325 36.4824C16.413 36.3721 16.5942 36.2628 16.776 36.1548C17.2626 35.8644 17.755 35.5858 18.2514 35.3131C18.4097 35.2238 18.5692 35.1369 18.73 35.0522C19.9052 34.4146 21.0981 33.8122 22.2909 33.208C22.7107 32.9942 23.1325 32.7803 23.5504 32.5645C24.0242 32.3217 24.4963 32.0758 24.9669 31.8268C25.3867 31.6051 25.8046 31.3776 26.2224 31.1519C26.4677 31.0205 26.7129 30.889 26.9582 30.7596C27.8606 30.2809 28.773 29.8218 29.7108 29.4293C29.7167 29.4254 29.7226 29.4234 29.7284 29.4215C29.8363 29.3764 29.9423 29.3312 30.0502 29.29C30.574 29.0801 31.1057 28.8937 31.6472 28.7388C31.7396 28.7114 31.8325 28.6859 31.9258 28.6623C32.5556 28.4975 33.2011 28.3856 33.8484 28.4131C33.9956 28.419 34.1467 28.4327 34.2899 28.47C34.3449 28.4837 34.4018 28.5014 34.4547 28.523C34.4783 28.5328 34.5018 28.5445 34.5253 28.5563C34.5449 28.5642 34.5646 28.5759 34.5842 28.5877C34.594 28.5917 34.6038 28.5976 34.6136 28.6034V28.6054C34.6549 28.6289 34.696 28.6583 34.7353 28.6878C34.8085 28.7475 34.8768 28.8131 34.9393 28.884C34.9569 28.9056 34.9747 28.9271 34.9903 28.9488C35.0237 28.9881 35.0531 29.0292 35.0806 29.0723C35.1041 29.1057 35.1257 29.141 35.1434 29.1763C35.6929 30.1023 35.4986 31.1696 35.0239 32.1956Z" fill="#DBA05A"/>
<path d="M35.0883 31.1126C35.0294 31.3715 34.9569 31.6365 34.9843 31.8994C34.9942 31.9974 35.0197 32.0975 35.0236 32.1956C35.0299 32.2467 35.0272 32.2984 35.0158 32.3486C34.9843 32.4919 34.8863 32.5939 34.7744 32.6939L34.7725 32.6959C34.6606 32.7939 34.5371 32.8862 34.4507 33.0059C34.3527 33.1432 34.3153 33.3021 34.3075 33.4689C34.2898 33.8417 34.4154 34.2615 34.2996 34.6245C34.1308 35.164 33.507 35.4053 32.9498 35.4858C32.9164 35.4917 32.8812 35.4956 32.8458 35.5014C32.6457 35.5348 32.4397 35.5878 32.3318 35.7526C32.2278 35.9115 32.2573 36.1155 32.2278 36.3058C32.2219 36.3411 32.214 36.3764 32.2043 36.4117C32.1219 36.6766 31.8649 36.8257 31.6452 37.0082C31.5687 37.071 31.4961 37.1396 31.4372 37.22C31.4134 37.2519 31.3918 37.2853 31.3724 37.3201C31.1645 37.6811 31.1056 38.2029 30.7054 38.2755C30.6348 38.2873 30.5583 38.2834 30.4857 38.2794C30.3758 38.2735 30.2679 38.2696 30.1777 38.3285C30.0816 38.3932 30.0403 38.5109 29.9854 38.6129C29.7441 39.0582 29.1085 39.2289 28.6768 38.968C28.2825 39.5585 27.7999 40.208 27.0936 40.2923C26.8385 40.3237 26.5501 40.2845 26.3559 40.4512C26.244 40.5435 26.1871 40.6866 26.0851 40.7886C25.7143 41.1535 25.0139 40.8102 24.6019 41.126C24.4273 41.2614 24.3488 41.4871 24.1978 41.648C23.927 41.9403 23.4856 41.9756 23.0873 41.9932C22.3574 42.0227 21.6296 42.0521 20.8997 42.0835C20.6878 42.0914 20.4701 42.0992 20.268 42.0365C20.0953 41.9835 19.9423 41.8795 19.7736 41.8128C18.8515 41.4341 17.641 42.1247 16.8621 41.5009C16.6423 41.3243 16.4913 41.0614 16.2402 40.9339C15.7124 40.667 15.0277 41.1261 14.5 40.8593C14.0703 40.6455 13.829 39.9941 13.3562 40.0745C13.2621 40.0902 13.1738 40.1354 13.0796 40.1412C12.7264 40.1608 12.6087 39.6939 12.4341 39.3878C12.2791 39.1171 12.0044 38.9366 11.7023 38.8444C11.5985 38.8099 11.4913 38.7868 11.3825 38.7757C10.9647 38.7287 10.5448 38.8111 10.1328 38.8955C10.4879 38.1852 11.0844 37.6654 11.7494 37.2514C11.8379 37.1952 11.9275 37.1409 12.0182 37.0885C12.0295 37.0841 12.04 37.0782 12.0496 37.0709C12.1261 37.0278 12.2026 36.9865 12.2811 36.9434C12.3517 36.908 12.4224 36.8708 12.493 36.8355C12.5165 36.8237 12.54 36.812 12.5636 36.8021C12.6374 36.7665 12.712 36.7325 12.7873 36.7001C12.8891 36.6568 12.9898 36.611 13.0894 36.5628C13.1032 36.5569 13.1169 36.551 13.1306 36.5432C13.1541 36.5314 13.1776 36.5196 13.1992 36.5059C13.2836 36.4608 13.364 36.4116 13.4366 36.3529C13.5003 36.3056 13.5588 36.2517 13.6111 36.192C13.619 36.1841 13.6268 36.1744 13.6327 36.1665C13.7896 35.988 13.9171 35.8114 14.0564 35.6525C14.2212 35.4621 14.4037 35.2914 14.6744 35.1561C14.7922 35.0973 14.9118 35.0482 15.0335 35.0012C15.3474 34.8874 15.677 34.8109 16.0027 34.7324L16.2028 34.6853C16.5022 34.6131 16.7999 34.534 17.0955 34.448C18.698 33.9847 20.2387 33.33 21.6844 32.4979C21.7315 32.4704 21.7767 32.4449 21.8237 32.4155C22.3554 32.1055 22.8773 31.77 23.3933 31.4227C24.0917 30.9558 24.7823 30.4693 25.4768 29.9964C25.8849 29.7198 26.2949 29.447 26.7108 29.1881C27.5583 28.6545 28.4255 28.1699 29.3398 27.7932C29.5242 27.7147 29.7105 27.6441 29.8989 27.5754C30.2167 27.4622 30.5394 27.3634 30.8661 27.2792C31.2584 27.1791 31.6744 27.1104 32.0864 27.0908C32.4278 27.0752 32.7653 27.0928 33.089 27.1556C33.5912 27.2537 34.0562 27.4597 34.427 27.8167C34.4407 27.8285 34.4545 27.8422 34.4682 27.856C34.4996 27.8874 34.531 27.9208 34.5584 27.9541C34.582 27.9796 34.6035 28.0051 34.6232 28.0306C34.6272 28.0345 34.6311 28.0385 34.6311 28.0424C34.6605 28.0758 34.686 28.111 34.7115 28.1464C34.7174 28.1562 34.7252 28.164 34.7311 28.1738C34.7566 28.2131 34.7821 28.2523 34.8057 28.2916C34.8708 28.3997 34.9278 28.5125 34.9763 28.629C34.9959 28.6741 35.0136 28.7212 35.0293 28.7683C35.0772 28.9013 35.1153 29.0377 35.1431 29.1764C35.2747 29.8001 35.2316 30.4867 35.0883 31.1126Z" fill="#95A817"/>
<path d="M12.9732 37.8532C12.4118 37.6856 11.335 37.7284 11.0081 38.3224C10.9942 38.3477 11.0171 38.3714 11.0427 38.3674C11.3439 38.3216 11.6172 38.1328 11.9237 38.0676C12.2586 37.9965 12.6087 38.0046 12.9472 38.0459C13.0601 38.0596 13.0753 37.8837 12.9732 37.8532ZM19.8132 41.4548C19.6268 41.1204 19.4229 40.8098 19.2065 40.494C19.0662 40.2893 18.9381 40.0623 18.7848 39.8616C18.8536 39.7134 18.912 39.5606 18.9596 39.4043C19.0863 39.2967 19.2096 39.1851 19.3291 39.0696C19.3976 39.0036 19.3063 38.8776 19.2251 38.9348C19.1654 38.9768 19.1075 39.0185 19.049 39.0603C19.1059 38.7857 19.1339 38.5014 19.1343 38.2117C19.1344 38.1512 19.0382 38.1346 19.0259 38.197C18.9564 38.5501 18.8801 38.9057 18.78 39.2521C18.1624 39.6935 17.5724 40.0921 16.791 40.2864C16.7372 40.2998 16.7487 40.3831 16.8041 40.3828C17.3799 40.3782 17.9328 40.1374 18.4271 39.8077C18.4548 39.8654 18.4861 39.9221 18.521 39.9777C18.3731 40.3041 18.1843 40.6111 17.9319 40.884C17.9047 40.9133 17.9453 40.9525 17.9752 40.9273C18.2476 40.6976 18.4631 40.4322 18.635 40.1446C18.7602 40.3138 18.9033 40.4748 19.0275 40.6321C19.2656 40.9335 19.507 41.2111 19.7845 41.477C19.7994 41.4916 19.8235 41.4733 19.8132 41.4548ZM24.4566 40.6419C24.4383 40.6424 24.2591 39.5178 24.2261 39.4154C24.1806 39.2734 23.9549 39.2543 23.9187 39.4154C23.8456 39.7403 23.9054 40.0902 23.9936 40.4063C24.0588 40.6403 24.1149 40.9438 24.4076 40.9497C24.4578 40.9507 24.5175 40.9206 24.5399 40.8737L24.5625 40.8264C24.6008 40.7462 24.556 40.6394 24.4566 40.6419ZM21.9857 39.8836C21.9857 39.8355 21.9167 39.8374 21.9121 39.8836C21.8535 40.4746 21.9215 40.983 22.14 41.5353C22.1626 41.5925 22.2537 41.571 22.2346 41.5093C22.0734 40.9887 21.9856 40.4285 21.9857 39.8836ZM26.7567 39.4132C26.3903 38.9945 26.0294 38.5591 25.6998 38.1107C25.6484 38.0408 25.5466 38.0993 25.5834 38.1788C25.8364 38.7276 26.1861 39.1623 26.675 39.5191C26.7401 39.5666 26.8043 39.4675 26.7567 39.4132ZM29.5864 38.1362C29.0543 37.8117 28.2376 37.777 27.6294 37.778C27.5157 37.7782 27.5001 37.9361 27.6033 37.9707C28.1793 38.1639 28.9619 38.388 29.5718 38.2484C29.6246 38.2362 29.6297 38.1627 29.5864 38.1362ZM30.9776 37.1221C30.3017 36.5066 30.1969 35.3675 29.8653 34.5705C29.8072 34.4306 29.5547 34.3749 29.5225 34.5705C29.374 35.4703 29.8413 37.168 30.9299 37.2372C30.9876 37.2408 31.0196 37.1605 30.9776 37.1221ZM31.4282 36.1379C31.2806 35.418 31.205 34.6931 31.1161 33.9639C31.1037 33.8623 30.9522 33.8211 30.9235 33.9378C30.7716 34.5541 30.6119 35.8729 31.2481 36.2763C31.3442 36.3373 31.4485 36.2371 31.4282 36.1379ZM32.2402 32.1333C32.1778 32.0825 32.0819 32.1452 32.1247 32.2225C32.3431 32.6179 32.628 32.9714 32.8629 33.3569C33.0719 33.7002 33.2539 34.0698 33.5133 34.378C33.5231 34.3896 33.5464 34.3806 33.5447 34.365C33.4557 33.5641 32.8571 32.636 32.2402 32.1333ZM34.5253 32.3292C34.4557 32.0232 34.174 31.8382 33.9499 31.6426C33.6979 31.4225 33.4036 31.2295 33.1045 31.0816C33.049 31.0541 32.9712 31.1137 33.0122 31.1738C33.2078 31.4612 33.4486 31.7311 33.7176 31.9517C33.9458 32.1389 34.1668 32.3761 34.4781 32.3913C34.5113 32.3929 34.5321 32.3587 34.5253 32.3292ZM34.6957 30.5116C34.6208 30.3616 34.419 30.2522 34.2908 30.1504C34.1514 30.0397 34.029 29.907 33.8984 29.7861C33.8126 29.7068 33.6875 29.7663 33.6787 29.8771C33.6583 30.1316 33.7871 30.3589 33.9719 30.5267C34.1297 30.67 34.4502 30.8162 34.6518 30.6794C34.7092 30.6404 34.727 30.5746 34.6957 30.5116Z" fill="#BBD128"/>
<path d="M19.1958 37.9047C19.1958 37.9067 19.1938 37.9067 19.1958 37.9087C19.1958 37.9361 19.1938 37.9616 19.1918 37.9891V37.9989H19.1899C19.1879 38.0382 19.184 38.0754 19.18 38.1147C19.1703 38.2049 19.1565 38.2946 19.1389 38.3835C19.1348 38.4023 19.1315 38.4213 19.129 38.4404C19.1212 38.4679 19.1152 38.4934 19.1094 38.5208V38.5228C19.0976 38.5679 19.0879 38.6111 19.0761 38.6543C19.0642 38.6974 19.0506 38.7386 19.0387 38.7798C19.0368 38.7877 19.0328 38.7954 19.0309 38.8033C19.0216 38.8357 19.0111 38.8678 18.9995 38.8994C18.9808 38.9552 18.9598 39.0101 18.9367 39.0642C18.9268 39.0878 18.9151 39.1113 18.9052 39.1348L18.8699 39.1996C18.8167 39.2912 18.7528 39.3762 18.6796 39.4527C18.6642 39.47 18.6479 39.4864 18.6306 39.5018C18.5668 39.5637 18.4979 39.6202 18.4246 39.6705C18.1264 39.8765 17.7536 40.0118 17.375 40.0943C17.023 40.1699 16.6638 40.2074 16.3038 40.2061C15.3267 40.2022 14.2968 39.9727 13.4237 39.5273C12.8351 39.229 12.1072 38.8013 11.8286 38.1814C11.8204 38.1632 11.8126 38.1449 11.8051 38.1264C11.8012 38.1186 11.7992 38.1108 11.7952 38.1029C11.7626 38.0182 11.737 37.9309 11.7187 37.842C11.6776 37.636 11.6854 37.4339 11.7502 37.2515C11.7952 37.124 11.8699 37.0082 11.9738 36.9062C11.9738 36.9042 11.9738 36.9042 11.9758 36.9042V36.9023C12.0052 36.8748 12.0367 36.8473 12.0719 36.8218C12.0895 36.8081 12.1072 36.7943 12.1268 36.7826C12.1602 36.7591 12.1955 36.7395 12.2347 36.7198C12.2446 36.7139 12.2543 36.708 12.2662 36.7022C12.3419 36.6649 12.4206 36.634 12.5016 36.6099C12.5629 36.5906 12.6251 36.5742 12.6879 36.5609C12.8089 36.5357 12.9315 36.5193 13.0548 36.5119C13.0744 36.5099 13.0941 36.5099 13.1137 36.5079C13.1431 36.506 13.1706 36.506 13.2 36.506C13.3099 36.5001 13.4217 36.502 13.5316 36.504C13.5944 36.504 13.6571 36.506 13.7199 36.5079C13.8397 36.5119 13.9632 36.506 14.0887 36.4961C14.0986 36.4942 14.1064 36.4942 14.1142 36.4942C14.1496 36.4902 14.1829 36.4863 14.2182 36.4804C14.487 36.449 14.7637 36.394 15.0324 36.3411C15.1717 36.3156 15.3071 36.2901 15.4405 36.2705C15.4895 36.2629 15.5385 36.2564 15.5877 36.2509C15.9801 36.2038 16.3803 36.1586 16.7767 36.1548C17.1984 36.1508 17.6144 36.1941 18.0107 36.3372C18.1362 36.3823 18.2736 36.455 18.4089 36.5452C18.5914 36.6649 18.768 36.8139 18.8994 36.961C18.9406 37.0042 18.9759 37.0474 19.0073 37.0905C19.0348 37.1278 19.0583 37.167 19.0779 37.2102C19.1113 37.273 19.1348 37.3436 19.1525 37.4162C19.1584 37.4397 19.1643 37.4633 19.1681 37.4868V37.4888C19.174 37.5103 19.176 37.5299 19.1799 37.5516C19.1963 37.6685 19.2016 37.7868 19.1958 37.9047Z" fill="#BB2608"/>
<path d="M19.281 40.2788C19.509 40.4489 19.775 40.5616 20.047 40.6445C21.348 41.0407 22.7574 40.7703 24.0536 40.3583C24.4813 40.2224 24.9108 40.0678 25.2739 39.8041C25.637 39.5404 25.9305 39.1511 25.9855 38.7057C26.0316 38.3324 25.9073 37.9545 25.7142 37.6317C25.2969 36.9341 24.5626 36.4576 23.7742 36.2597C22.9859 36.0618 22.1482 36.125 21.3634 36.3366C20.4184 36.5916 19.4908 37.0936 18.8895 37.8835C18.3331 38.6143 18.5437 39.7287 19.281 40.2788Z" fill="#BB2608"/>
<path d="M27.3637 38.6373C28.3853 38.5176 29.3111 37.9622 30.0842 37.2837C30.4593 36.9544 30.8276 36.5498 30.8663 36.0522C30.8843 35.8228 30.8286 35.5925 30.7386 35.3807C30.4613 34.7282 29.8378 34.235 29.1389 34.1154C28.4491 33.9973 27.7515 34.2232 27.0906 34.4533C26.675 34.5981 26.254 34.749 25.8971 35.0066C25.3448 35.4051 24.9963 36.0198 24.6648 36.6149C23.8823 38.0202 26.3018 38.7617 27.3637 38.6373Z" fill="#BB2608"/>
<path d="M31.9007 35.2094C32.5046 34.8934 32.98 34.371 33.3448 33.7954C33.6272 33.3499 33.8553 32.8469 33.8511 32.3194C33.847 31.792 33.5626 31.2411 33.0708 31.0502C32.759 30.9292 32.4103 30.9629 32.0803 31.0177C30.8011 31.2304 28.9783 31.893 28.8543 33.4361C28.7236 35.0647 30.5624 35.9095 31.9007 35.2094Z" fill="#BB2608"/>
<path d="M34.2799 30.6898C34.1589 30.2939 33.8059 29.9872 33.4087 29.8597C32.8103 29.6676 32.1063 29.8635 31.6931 30.3369C31.5271 30.527 31.4029 30.7782 31.4492 31.0263C31.5867 31.7618 32.9051 32.2898 33.56 32.0639C34.0731 31.8868 34.4175 31.3075 34.3014 30.7721C34.2953 30.7444 34.2882 30.7169 34.2799 30.6898Z" fill="#BB2608"/>
<path d="M19.0077 37.0901C18.7899 36.7937 18.3569 36.462 18.0109 36.3374C17.2431 36.061 16.3979 36.1542 15.5878 36.2517C14.9935 36.3233 14.3182 36.5258 13.7198 36.5082C13.2264 36.4936 12.7103 36.4837 12.2672 36.7013C12.1519 36.7579 12.0556 36.8258 11.9766 36.9025C12.0811 37.5512 12.5871 37.9707 13.254 38.3293C14.6514 39.0808 16.1521 39.5611 17.7646 39.4316C18.2221 39.3948 18.6492 39.1964 18.9997 38.8998C19.1871 38.3638 19.3288 37.5269 19.0077 37.0901Z" fill="#C44622"/>
<path d="M25.6903 37.7621C25.704 37.7252 25.7129 37.6869 25.7249 37.6495C25.7214 37.6436 25.7184 37.6375 25.715 37.6317C25.2978 36.9341 24.5634 36.4576 23.7751 36.2597C22.9867 36.0618 22.1491 36.125 21.3643 36.3366C20.4193 36.5916 19.4917 37.0936 18.8903 37.8835C18.6528 38.1956 18.5562 38.5776 18.5796 38.9557C18.7567 39.1275 18.955 39.27 19.1287 39.3655C19.7152 39.6883 20.3979 39.7846 21.0659 39.8285C21.9707 39.8879 22.8997 39.8579 23.7516 39.5475C24.6036 39.2372 25.3747 38.6121 25.6903 37.7621Z" fill="#C44622"/>
<path d="M30.4884 34.9521C30.1633 34.5186 29.6738 34.207 29.1387 34.1154C28.4489 33.9973 27.7513 34.2232 27.0903 34.4533C26.6748 34.5981 26.2538 34.749 25.8969 35.0066C25.3445 35.4051 24.9961 36.0198 24.6646 36.6149C24.4227 37.0494 24.4873 37.4201 24.7226 37.7217C24.9581 37.8565 25.2275 37.9234 25.4958 37.9701C25.5738 37.9837 25.6522 37.995 25.7308 38.004C27.0758 38.1585 28.1147 37.5819 29.2374 36.8477C29.6484 36.5789 30.0645 36.2807 30.3001 35.8499C30.4516 35.5727 30.5075 35.2626 30.4884 34.9521Z" fill="#C44622"/>
<path d="M31.2895 34.8831C32.1642 34.4746 32.8508 33.7161 33.256 32.8483C33.4259 32.4845 33.5515 32.0897 33.5357 31.6884C33.5305 31.5705 33.5116 31.4536 33.4795 31.34C33.366 31.2149 33.2306 31.1121 33.0707 31.05C32.7588 30.929 32.4102 30.9626 32.0802 31.0175C30.801 31.2302 28.9782 31.8928 28.8543 33.4358C28.7854 34.292 29.2627 34.9281 29.9237 35.2405C30.3922 35.2082 30.8754 35.0765 31.2895 34.8831Z" fill="#C44622"/>
<path d="M34.0492 30.2799C33.8819 30.0858 33.6539 29.9384 33.4087 29.8597C32.8103 29.6676 32.1063 29.8635 31.6931 30.3369C31.5271 30.527 31.4029 30.7782 31.4492 31.0264C31.5299 31.4579 32.0173 31.8165 32.5384 31.9948C32.9923 31.9252 33.4375 31.7038 33.7518 31.3401C33.8524 31.2237 33.9416 31.0956 33.9998 30.9532C34.0864 30.7412 34.0973 30.5046 34.0492 30.2799Z" fill="#C44622"/>
<path d="M32.8531 27.1951C33.411 27.092 33.9771 27.0406 34.5444 27.0415C34.6039 27.0416 34.6669 27.0433 34.717 27.0752C34.7541 27.0987 34.7797 27.1362 34.8025 27.1738C35.115 27.691 35.0278 28.3458 34.9305 28.942C34.8806 29.2473 34.7269 29.5165 34.5597 29.7717C34.5232 29.8274 34.4104 30.0581 34.3183 29.912C34.286 29.8606 34.2995 29.7938 34.3149 29.735C34.3633 29.5515 34.4201 29.3702 34.4852 29.1919C34.5631 28.9787 34.5757 28.7406 34.6339 28.5213C34.6766 28.3597 34.7107 28.1539 34.7395 27.9893C34.4072 28.1225 34.0363 28.1194 33.6802 28.0818C33.3242 28.0442 32.9698 27.9741 32.6119 27.9802C32.6658 27.6957 32.7436 27.4632 32.8531 27.1951ZM30.6872 33.6742C30.5497 33.5579 30.4732 33.3873 30.383 33.2315C30.1657 32.8565 29.852 32.549 29.5701 32.2201C29.3324 31.9427 29.1158 31.6481 28.9219 31.3385C29.0605 31.3283 29.2043 31.3188 29.3346 31.3673C29.4062 31.394 29.4704 31.4374 29.5338 31.4802L30.3665 32.0434C30.5947 32.1977 30.8349 32.3567 31.1088 32.3873C31.3621 32.4157 31.6174 32.3289 31.8342 32.1949C32.0511 32.0609 32.2356 31.8815 32.42 31.7056C32.6789 31.4584 32.9413 31.2149 33.2071 30.9751C33.3312 30.863 33.4844 30.7438 33.6475 30.7804C33.7931 30.813 33.8861 30.966 33.8987 31.1148C33.9195 31.3632 33.7675 31.5907 33.6099 31.7839C33.0771 32.4354 32.4058 32.9601 31.6448 33.3198C31.5767 33.3519 31.5072 33.383 31.448 33.4295C31.2278 33.6023 31.0099 33.9969 30.6872 33.6742Z" fill="#B3523E"/>
<path d="M22.5466 37.8809C21.902 37.9319 21.2544 37.9472 20.6124 38.0246C20.3292 38.0587 20.0371 38.1088 19.8014 38.2696C19.6329 38.3846 19.4957 38.5727 19.5105 38.7761C19.5287 39.029 19.7672 39.2094 20.0041 39.2997C20.3647 39.4361 20.7608 39.4466 21.1282 39.3297C21.2614 39.2869 21.3887 39.2278 21.5186 39.1757C21.9088 39.0193 22.3214 38.9262 22.741 38.8999C22.8946 38.8903 23.0506 38.8895 23.1988 38.8477C23.3243 38.8122 23.4396 38.7486 23.5537 38.6854C23.8594 38.5163 24.1614 38.3229 24.4841 38.1878C24.6757 38.1075 24.9797 38.0634 25.1266 37.9049C25.2762 37.7436 25.1884 37.5167 24.9795 37.5149C24.6143 37.5118 24.186 37.677 23.8209 37.7331C23.4066 37.7966 22.9667 37.8809 22.5466 37.8809ZM17.511 39.5875C17.9247 39.4823 18.418 39.6838 18.7608 39.4295C18.9712 39.2735 19.0441 38.9983 19.1547 38.7609C19.2781 38.4962 19.4602 38.2636 19.6039 38.0095C19.9073 37.4728 20.0313 36.8563 20.1482 36.2511C20.1107 36.2573 20.0723 36.2537 20.0365 36.2409C20.0008 36.228 19.969 36.2062 19.9441 36.1775C19.2715 36.7719 18.8316 37.5798 18.4148 38.3748C17.3597 38.7062 16.1888 38.6546 15.1669 38.2318C14.1451 37.8089 13.2801 37.0181 12.7679 36.038C12.6918 35.8926 12.6163 35.7353 12.4766 35.6494C12.3368 35.5634 12.1116 35.5964 12.0629 35.7531C12.0425 35.8183 12.0568 35.8887 12.071 35.9556L12.2836 36.9491C12.347 37.2459 12.4407 37.5346 12.6645 37.7395C12.8882 37.9443 13.1669 38.0774 13.441 38.2075C14.2817 38.6065 15.1279 39.0075 16.026 39.2515C16.5148 39.384 17.0058 39.5514 17.511 39.5875Z" fill="#9E4936"/>
<path d="M19.8548 35.3072C19.8548 35.3072 19.8548 35.3091 19.8528 35.3091C19.5958 35.6544 19.3761 36.0155 19.1799 36.3902C19.0809 36.5778 18.9873 36.7681 18.8993 36.9611C18.8283 37.1151 18.7596 37.2701 18.6933 37.4261C18.6663 37.4866 18.6402 37.5474 18.6148 37.6086C18.5834 37.6811 18.554 37.7538 18.5226 37.8263C18.4696 37.9421 18.4108 38.052 18.3303 38.1501C18.2263 38.2795 18.0969 38.3796 17.9497 38.4522C17.8849 38.4836 17.8163 38.5111 17.7457 38.5326C17.5633 38.5955 17.3651 38.6249 17.1728 38.6307C16.9287 38.637 16.6849 38.6127 16.4469 38.5581C16.2474 38.5132 16.0534 38.4467 15.8682 38.36C15.5778 38.2226 15.309 38.0382 15.0088 37.9283C14.8656 37.8754 14.7146 37.84 14.5792 37.7694C14.5427 37.7509 14.5079 37.7292 14.4752 37.7046C14.1339 37.4692 13.9337 37.0396 13.5551 36.861C13.4668 36.8179 13.3667 36.7904 13.2863 36.7315C13.2196 36.6825 13.1705 36.6177 13.1313 36.5432L13.1137 36.5078C12.9999 36.2665 12.9646 35.9566 12.7291 35.8388C12.7005 35.8249 12.6701 35.815 12.6388 35.8094C12.5408 35.7898 12.425 35.8055 12.3053 35.8349C12.3013 35.8349 12.2954 35.8349 12.2915 35.8369C12.215 35.8545 12.1365 35.8761 12.062 35.8957C11.9423 35.9271 11.8286 35.9526 11.7304 35.9507C11.6774 35.8742 11.697 35.7722 11.7265 35.6858C11.8108 35.4406 11.9599 35.2169 12.1581 35.0463C12.2107 35.0012 12.2664 34.9599 12.3249 34.9227C12.3778 34.8893 12.4308 34.8579 12.4877 34.8305C12.5607 34.7951 12.6346 34.7617 12.7094 34.7304C12.7585 34.7108 12.8075 34.6931 12.8565 34.6735C13.4533 34.4422 14.0497 34.2101 14.6458 33.9771C14.941 34.1869 15.2518 34.3739 15.5757 34.5362C15.7158 34.6067 15.8585 34.6722 16.0033 34.7324C16.7191 35.0387 17.4771 35.2345 18.2517 35.3131C18.7813 35.368 19.3169 35.3661 19.8448 35.3072H19.8548Z" fill="#B3523E"/>
<path d="M17.704 38.6285C17.7974 38.7226 17.9482 38.7408 18.0754 38.7035C18.2027 38.6663 18.3107 38.5822 18.4088 38.4929C19.3088 37.6733 19.5742 36.3643 20.3197 35.402C18.8976 35.1293 17.3976 34.8054 16.2524 33.9192C15.6269 34.5059 14.944 35.109 14.2494 35.6118C14.1337 35.6957 14.0072 35.79 13.9773 35.9297C13.954 36.0383 13.9959 36.1503 14.0495 36.2476C14.2019 36.5213 14.4478 36.7309 14.7422 36.838C15.4339 37.0866 16.1647 37.2414 16.8996 37.2281C17.2133 37.2225 17.54 37.3524 17.846 37.422C18.1472 37.4904 18.2804 37.7881 18.2897 38.0968C18.1272 38.2863 17.9212 38.5053 17.704 38.6285Z" fill="#C25942"/>
<path d="M18.9367 39.2329V39.2309C18.9326 39.2095 18.9267 39.1885 18.919 39.1681C18.9151 39.1563 18.9092 39.1446 18.9052 39.1347C18.8876 39.0994 18.866 39.0661 18.8366 39.0406C18.8366 39.0367 18.8327 39.0327 18.8287 39.0308C18.7618 38.9664 18.6725 38.9305 18.5796 38.9307C18.5384 38.9307 18.4952 38.9366 18.454 38.9523L18.4521 38.9543C18.4521 38.9543 18.3834 38.9798 18.2481 39.019C18.1107 39.0544 17.9028 39.0995 17.6301 39.1289C17.3554 39.1564 17.018 39.1643 16.6295 39.1329C16.241 39.1014 15.8055 39.0249 15.3425 38.8935C14.8834 38.7542 14.389 38.5737 13.926 38.2873C13.7985 38.2108 13.6709 38.1284 13.5493 38.0342C13.2276 37.7929 12.9352 37.4966 12.7292 37.1494C12.6644 37.0395 12.6017 36.914 12.5644 36.8021C12.5609 36.7953 12.5583 36.788 12.5565 36.7806L12.5231 36.6903L12.5016 36.6099L12.4937 36.5745L12.478 36.5176L12.4741 36.5038L12.4761 36.5058V36.5019L12.4682 36.4704C12.4602 36.4301 12.453 36.3895 12.4466 36.3489C12.4367 36.2813 12.4334 36.213 12.4368 36.1449C12.4388 36.1527 12.4447 36.1625 12.4486 36.1704C12.5211 36.3048 12.601 36.4351 12.6879 36.5607C12.7193 36.6078 12.7527 36.6549 12.788 36.7C12.8768 36.8199 12.9718 36.9352 13.0724 37.0453C13.3785 37.3769 13.7297 37.6614 14.1005 37.8987C14.3091 38.0339 14.526 38.1557 14.7499 38.2636C15.362 38.5559 16.0094 38.7364 16.647 38.8051C16.9628 38.8385 17.2846 38.8522 17.5868 38.8424C17.7397 38.8385 17.9105 38.8326 18.0929 38.7718C18.1832 38.7404 18.2793 38.6914 18.3617 38.6169C18.3832 38.5973 18.4166 38.5639 18.4245 38.5521L18.4421 38.5305C18.4617 38.505 18.4617 38.503 18.4716 38.4874C18.4971 38.452 18.5147 38.4129 18.5304 38.3736C18.5363 38.3598 18.5423 38.3461 18.5461 38.3323C18.5716 38.244 18.5814 38.1578 18.5755 38.0754C18.5712 37.99 18.5533 37.9059 18.5226 37.8262C18.5107 37.7967 18.499 37.7673 18.4852 37.7398C18.4637 37.6967 18.4421 37.6594 18.4068 37.6123L18.3714 37.5672L18.3204 37.5103C18.2851 37.4769 18.2498 37.4455 18.2125 37.42C18.1828 37.3942 18.1506 37.3712 18.1164 37.3514C17.9771 37.2631 17.8358 37.2101 17.7024 37.165C17.5772 37.1235 17.4502 37.0875 17.3218 37.0571C16.8255 36.9296 16.3781 36.8609 16.0132 36.7589C15.9603 36.7451 15.9112 36.7295 15.8622 36.7138C15.5601 36.6216 15.3168 36.5156 15.1304 36.4039C15.0951 36.3823 15.0637 36.3627 15.0323 36.3411C14.8715 36.2332 14.7636 36.1272 14.6949 36.0488C14.6637 36.0117 14.6336 35.9738 14.6047 35.9349C14.6047 35.9349 14.6027 35.9369 14.6027 35.9349C14.5851 35.9094 14.5713 35.8918 14.5713 35.8918C14.532 35.8434 14.4813 35.8055 14.4238 35.7816C14.3663 35.7576 14.3037 35.7483 14.2417 35.7545C14.1644 35.7592 14.0908 35.7888 14.0317 35.8389C14.0199 35.8467 14.0102 35.8565 14.0003 35.8663C14.0003 35.8663 14.0003 35.8683 13.9984 35.8683C13.865 36.0056 13.8532 36.2274 13.9788 36.3784C13.9827 36.3804 13.9964 36.3999 14.0436 36.449C14.0554 36.4628 14.071 36.4784 14.0887 36.496C14.1102 36.5176 14.1357 36.5451 14.1671 36.5745C14.3025 36.6981 14.5163 36.8629 14.8047 37.0061C14.9299 37.0688 15.059 37.1232 15.1912 37.169C15.3972 37.2435 15.6268 37.3044 15.8701 37.3514C16.2841 37.4358 16.7333 37.4868 17.1983 37.5809C17.4298 37.6339 17.677 37.6888 17.8497 37.7889C17.8928 37.8144 17.9321 37.8418 17.9655 37.8732C17.9714 37.8791 17.9831 37.8909 17.9851 37.8909C17.993 37.9007 18.0106 37.9203 18.0126 37.9242C18.0185 37.9321 18.0341 37.9517 18.042 37.9693C18.0851 38.0419 18.0969 38.1322 18.0793 38.1871C18.0637 38.2381 18.0263 38.2813 17.9322 38.3166C17.84 38.3499 17.7125 38.3636 17.5712 38.3676C17.2808 38.3794 16.9963 38.3754 16.6982 38.3421C16.1116 38.2734 15.5112 38.1184 14.9639 37.8339C14.8403 37.7688 14.7204 37.6968 14.6048 37.6181C14.2101 37.352 13.8704 37.0122 13.6042 36.6175C13.5787 36.5802 13.5532 36.543 13.5317 36.5037C13.4963 36.4547 13.4669 36.4037 13.4375 36.3527C13.3394 36.182 13.255 36.0074 13.1883 35.8269C13.1763 35.7998 13.1652 35.7723 13.1549 35.7445C13.1397 35.7037 13.1253 35.6625 13.1118 35.621C13.0882 35.5601 13.0667 35.4562 12.9803 35.3129C12.9248 35.2239 12.8497 35.1487 12.7606 35.0932L12.7213 35.0716L12.6782 35.05L12.6644 35.0441C12.6585 35.0422 12.6291 35.0304 12.6114 35.0265C12.6055 35.0245 12.5996 35.0226 12.5938 35.0226C12.5173 34.999 12.4702 34.9971 12.4114 34.9971C12.3133 35.001 12.2309 35.0186 12.1582 35.0461C12.0503 35.0892 11.9679 35.1501 11.9013 35.2089C11.8437 35.2605 11.793 35.3192 11.7502 35.3835C11.7404 35.4011 11.7287 35.4169 11.7188 35.4345L11.7051 35.46L11.6972 35.4738L11.6854 35.5032C11.6736 35.5248 11.6717 35.5307 11.6579 35.568C11.63 35.6395 11.6134 35.715 11.6089 35.7917C11.6028 35.8564 11.6048 35.9217 11.6148 35.9859C11.6541 36.2273 11.7638 36.3842 11.8267 36.5294C11.8443 36.5667 11.86 36.602 11.8717 36.6354L11.9149 36.7589L11.956 36.8688L11.9737 36.9061L11.9796 36.9199L12.0129 36.9944C12.0247 37.0199 12.0365 37.0454 12.0502 37.0709C12.1189 37.2102 12.1974 37.3279 12.2817 37.4456C12.366 37.5632 12.4584 37.6746 12.5584 37.7792C12.6429 37.8681 12.732 37.9526 12.8252 38.0323C12.8252 38.0343 12.8272 38.0323 12.8272 38.0323C12.8331 38.0382 12.837 38.0441 12.8428 38.048C12.9154 38.1108 12.9899 38.1697 13.0665 38.2226C13.2803 38.3835 13.5021 38.5189 13.7198 38.6424C14.2004 38.9028 14.7067 39.1125 15.2305 39.2683C15.7132 39.4135 16.1663 39.5136 16.5744 39.5783C16.9806 39.643 17.3435 39.6763 17.6437 39.6862C17.834 39.694 17.9988 39.694 18.1381 39.6901C18.2101 39.6872 18.2821 39.6826 18.3539 39.6763C18.3794 39.6744 18.4029 39.6724 18.4245 39.6704C18.4874 39.6657 18.5502 39.6598 18.6128 39.6528C18.6443 39.65 18.6752 39.6434 18.7051 39.6332L18.7462 39.6156C18.8128 39.5819 18.8671 39.5282 18.9016 39.462C18.9361 39.3959 18.949 39.3206 18.9385 39.2468C18.9389 39.2421 18.9383 39.2373 18.9367 39.2329ZM12.2622 35.7898C12.2642 35.7859 12.2701 35.7938 12.2779 35.8114C12.2681 35.7996 12.2622 35.7917 12.2622 35.7898Z" fill="#D5745E"/>
<path d="M19.7851 36.8848L20.3312 36.0333C20.3562 35.9942 20.3821 35.9543 20.4195 35.9268C20.485 35.8787 20.5723 35.8775 20.6535 35.8772C21.7542 35.8732 22.8471 35.6937 23.8913 35.3455L25.0592 36.3131C25.2119 36.4397 25.3787 36.5961 25.37 36.7943C25.3654 36.8992 25.3102 36.9951 25.2471 37.079C25.1271 37.2385 24.9737 37.3706 24.8085 37.4825C24.6685 37.5774 24.517 37.6593 24.3523 37.6985C24.1479 37.7471 23.9343 37.7277 23.7242 37.7346C23.2637 37.7495 22.81 37.8917 22.3502 37.8638C22.1898 37.854 22.0315 37.8236 21.8718 37.8051C21.1551 37.7218 20.4669 37.8953 19.8388 38.2362C19.6605 38.3331 19.382 38.5418 19.1687 38.5331C18.883 38.5215 19.0775 38.1807 19.1468 38.0164C19.3156 37.6164 19.5514 37.2492 19.7851 36.8848Z" fill="#B3523E"/>
<path d="M21.1396 36.8328C20.8374 36.2123 21.0194 35.476 21.2065 34.8118C22.2144 34.6844 23.1925 34.3829 24.0974 33.9209C24.4598 34.422 24.8532 34.8658 25.2157 35.3668C25.4092 35.6343 25.6111 35.9268 25.608 36.257C25.414 36.1 25.1491 36.0532 24.9006 36.0768C24.6522 36.1003 24.4147 36.1872 24.1804 36.2734L23.271 36.6079C22.93 36.7333 22.5856 36.8596 22.2257 36.9101C21.8658 36.9605 21.4586 37.0071 21.1396 36.8328Z" fill="#C25942"/>
<path d="M21.595 36.4512L21.5913 36.5027L21.5905 36.5155L21.5915 36.5151L21.591 36.5143C21.5897 36.5142 21.5923 36.5301 21.5943 36.5406C21.5986 36.5862 21.6641 36.6895 21.8151 36.7573C21.8948 36.7878 21.9628 36.8026 22.081 36.7927C22.192 36.7839 22.3203 36.7478 22.4645 36.6906C22.7473 36.5725 23.1248 36.3826 23.531 36.241C23.8554 36.1238 24.1861 36.0248 24.5215 35.9446C24.6413 35.918 24.7487 35.8871 24.9069 35.8681C24.9847 35.8603 25.0735 35.8578 25.1709 35.8775C25.195 35.8824 25.2194 35.8882 25.2439 35.8963L25.2622 35.9022L25.2891 35.9127L25.3104 35.9216C25.3173 35.9234 25.3615 35.9463 25.3847 35.96C25.414 35.9766 25.4298 35.9903 25.4525 36.0066C25.618 36.1377 25.702 36.3192 25.732 36.4998C25.7465 36.5912 25.747 36.6853 25.7304 36.7805L25.7236 36.8162L25.7152 36.8498L25.709 36.8731L25.6974 36.9095C25.6808 36.96 25.6652 36.995 25.6455 37.0358C25.5682 37.1931 25.4591 37.3188 25.3437 37.4233C25.2835 37.4769 25.231 37.5211 25.1592 37.5704C25.1026 37.6082 25.0559 37.6445 24.9823 37.6856C24.8441 37.7707 24.715 37.8275 24.5746 37.8849C24.2969 37.9948 24.0068 38.0582 23.7181 38.1003C23.1386 38.1785 22.5661 38.1774 22.0086 38.1901L21.1675 38.207C21.0277 38.2108 20.8881 38.2105 20.749 38.2176C20.6194 38.2245 20.4921 38.254 20.3726 38.3046C20.261 38.354 20.1881 38.4073 20.1151 38.4595C20.0827 38.4943 20.0153 38.5341 19.9887 38.5632C19.9739 38.5789 19.9622 38.5903 19.9554 38.5995C19.9519 38.6042 19.9477 38.6076 19.9447 38.6111L19.9433 38.6124L19.9424 38.6131C19.9397 38.6359 19.9451 38.5823 19.9442 38.5907L19.9401 38.6155L19.936 38.6404C19.9346 38.6484 19.9354 38.638 19.9354 38.638C19.9244 38.6241 19.9216 38.6922 19.9452 38.7445C19.9687 38.8018 20.0142 38.8659 20.0694 38.9134L20.0797 38.9224C20.0776 38.9222 20.0917 38.9293 20.0763 38.9231L20.0868 38.9294L20.1262 38.9532C20.138 38.9619 20.1536 38.9725 20.1759 38.9837C20.2166 39.0049 20.2615 39.0235 20.3095 39.0396C20.5064 39.1015 20.7385 39.1161 20.9785 39.1078C21.4421 39.0877 21.8891 39.0082 22.289 38.9095C23.0904 38.7049 23.7193 38.4065 24.0974 38.1602C24.2858 38.0348 24.4107 37.9231 24.468 37.8386C24.5252 37.7541 24.5251 37.7087 24.528 37.7091L24.964 37.7564C24.9932 37.7596 25.021 37.7707 25.0443 37.7886C25.0677 37.8065 25.0857 37.8304 25.0964 37.8578C25.1071 37.8851 25.1101 37.9149 25.1051 37.9439C25.1001 37.9729 25.0872 37.9999 25.0679 38.0221L25.0214 38.0755C24.9911 38.1116 24.9464 38.1589 24.8873 38.2157C24.7689 38.3268 24.5991 38.4705 24.3672 38.6003C23.9075 38.8694 23.2204 39.0987 22.3888 39.3065C21.9717 39.4114 21.5223 39.5147 21.026 39.5964L20.8418 39.6276L20.6443 39.6554C20.5105 39.6737 20.368 39.6863 20.2138 39.6798C20.1336 39.677 20.0537 39.6682 19.9748 39.6537C19.9301 39.6454 19.886 39.6347 19.8426 39.6215L19.7931 39.6075L19.7814 39.6042L19.7563 39.5941L19.7235 39.5811C19.5492 39.5099 19.3892 39.4021 19.2577 39.2464C19.1255 39.0878 19.0179 38.8976 19.0065 38.615L19.0059 38.5373V38.5121L19.0141 38.4423C19.0219 38.3802 19.0364 38.3191 19.0573 38.2601C19.0962 38.1474 19.1533 38.0418 19.2264 37.9476C19.3706 37.7661 19.5307 37.6419 19.749 37.5674C19.928 37.511 20.128 37.508 20.2907 37.5285C20.4574 37.5465 20.6057 37.5766 20.7456 37.5831C20.8847 37.5888 21.0243 37.5871 21.1642 37.5894L22.0054 37.598C22.5697 37.5996 23.1246 37.6263 23.642 37.553C23.8998 37.5171 24.1494 37.4632 24.3765 37.3747C24.487 37.3309 24.6052 37.2783 24.6948 37.2231C24.7393 37.2011 24.7993 37.1571 24.8531 37.1214C24.8973 37.0913 24.9392 37.0581 24.9787 37.0221C25.1397 36.8781 25.219 36.7101 25.192 36.5876C25.1815 36.5196 25.146 36.461 25.1145 36.4392C25.1116 36.4381 25.104 36.4311 25.106 36.4333C25.1018 36.4329 25.1208 36.4372 25.0986 36.4288L25.0773 36.42L25.072 36.4178C25.0569 36.412 25.0862 36.4231 25.0828 36.422L25.0792 36.4209C25.0746 36.4192 25.069 36.4182 25.0633 36.417C25.0406 36.4122 25.0065 36.4116 24.9646 36.4162C24.883 36.4252 24.7597 36.4566 24.6511 36.4823C24.3365 36.5594 24.0264 36.6541 23.7223 36.7659C23.3331 36.9045 23.0213 37.0672 22.674 37.2155C22.501 37.2855 22.3189 37.3406 22.1345 37.3589C22.0891 37.3633 22.0436 37.3656 21.998 37.3657L21.9715 37.3658C21.9448 37.3656 21.9431 37.3644 21.9279 37.3637C21.9038 37.3616 21.8795 37.3606 21.8563 37.3572C21.7632 37.345 21.679 37.3202 21.6014 37.2913C21.2935 37.1722 21.0975 36.9451 21.0232 36.7413C21.0056 36.6952 20.9925 36.6476 20.9842 36.5991L20.976 36.5294C20.9752 36.5193 20.9745 36.5091 20.9738 36.499L20.9735 36.4849L20.9728 36.4333C20.9725 36.3915 20.9807 36.35 20.9968 36.3114C21.0128 36.2728 21.0365 36.2378 21.0664 36.2085C21.0964 36.1793 21.1318 36.1563 21.1708 36.1411C21.2098 36.1258 21.2514 36.1186 21.2932 36.1198C21.335 36.121 21.3762 36.1306 21.4142 36.1481C21.4522 36.1655 21.4863 36.1905 21.5145 36.2214C21.5427 36.2523 21.5643 36.2886 21.5782 36.3281C21.592 36.3676 21.5977 36.4095 21.595 36.4512Z" fill="#D5745E"/>
<path d="M25.5106 35.0145L25.7869 36.3114C25.8548 36.6306 25.9242 36.9537 26.0692 37.2462C26.1182 37.3452 26.2067 37.4545 26.3142 37.4294C26.5121 37.3831 26.6768 37.2407 26.8764 37.2026C27.0007 37.1789 27.128 37.1743 27.2521 37.1499C27.4506 37.1111 27.6355 37.0231 27.8166 36.9331C27.9544 36.8645 28.0916 36.794 28.2215 36.7114C28.3799 36.6107 28.5264 36.4923 28.6726 36.3744C29.4004 35.7868 30.1498 35.1729 30.5688 34.3367C30.6241 34.2264 30.671 34.0864 30.5979 33.987C30.5533 33.9264 30.4731 33.8998 30.398 33.904C30.2704 33.9111 30.1608 33.9933 30.0631 34.0757C29.5752 34.4879 29.1711 34.9904 28.6946 35.4157C28.2182 35.8411 27.6374 36.1977 26.9993 36.2226C26.9705 36.2237 26.9365 36.2217 26.9204 36.1978C26.9096 36.1817 26.9108 36.1606 26.9126 36.1412C26.9289 35.9737 26.9703 35.8097 26.9988 35.6439C27.0643 35.261 27.061 34.8694 26.989 34.4876C26.9688 34.3805 26.9411 34.2703 26.8716 34.1865C26.772 34.0667 26.6014 34.0241 26.4471 34.0451C26.2928 34.0662 26.1516 34.1418 26.02 34.2254C25.8744 34.3178 25.7336 34.4237 25.6335 34.5642C25.5336 34.7046 25.4747 34.8458 25.5106 35.0145Z" fill="#9E4936"/>
<path d="M30.6504 33.7733C30.5834 33.6556 30.4796 33.5639 30.3779 33.4746C30.2156 33.3322 30.0534 33.1898 29.8911 33.0474C29.7117 33.3902 29.404 33.6447 29.1043 33.8895L28.0061 34.7865C27.8893 34.882 27.7721 34.9776 27.644 35.0573C27.5123 35.1392 27.367 35.2061 27.2633 35.3214C27.199 35.3929 27.154 35.4799 27.0919 35.5534C27.0005 35.6615 26.8651 35.7573 26.8633 35.8989C26.8617 36.0321 26.9918 36.1372 27.1239 36.1547C27.2559 36.1723 27.3872 36.1249 27.511 36.0761C27.685 36.0076 27.858 35.9343 28.0169 35.8357C28.1811 35.7338 28.3278 35.6065 28.4736 35.4796C28.9168 35.0945 29.3603 34.709 29.7801 34.2986C29.9122 34.1694 30.0515 34.0323 30.2311 33.9887C30.2927 33.9743 30.3569 33.9749 30.4183 33.9903C30.475 34.0044 30.5543 34.0796 30.6075 34.0785C30.7758 34.0752 30.7021 33.8638 30.6504 33.7733Z" fill="#B3523E"/>
<path d="M29.8415 32.1088C29.4814 31.8445 29.0896 31.6262 28.6752 31.4591C28.6394 31.4446 28.6017 31.4304 28.5634 31.4346C28.5317 31.4381 28.5029 31.4539 28.4751 31.4694C27.5221 32.0003 26.5562 32.5408 25.7818 33.3091C25.7487 33.342 25.7153 33.3762 25.6953 33.4183C25.6654 33.4816 25.6691 33.5553 25.6793 33.6246C25.7201 33.9018 25.8526 34.1555 25.9588 34.4148C26.1331 34.8402 26.2389 35.2899 26.3532 35.7351C26.3826 35.8498 26.4141 35.9674 26.4837 36.0632C26.5533 36.159 26.6705 36.2296 26.7873 36.2099C26.7675 36.0213 26.8332 35.8316 26.9347 35.6714C27.0362 35.5112 27.1722 35.3763 27.3079 35.2437C27.464 35.0912 27.6222 34.9392 27.802 34.8154C27.975 34.6964 28.1657 34.6053 28.3416 34.4906C28.7273 34.2387 29.0264 33.8832 29.3225 33.5359C29.4733 33.359 29.6237 33.1807 29.7888 33.0168C29.8936 32.9127 30.1152 32.8167 30.1698 32.6757C30.2588 32.4462 29.9993 32.2247 29.8415 32.1088Z" fill="#C25942"/>
<path d="M30.1998 32.7743L30.1202 32.9386C30.043 33.0964 29.9572 33.2499 29.8631 33.3982C29.7429 33.5905 29.5577 33.8165 29.3249 34.0164C29.0912 34.22 28.8287 34.4077 28.5529 34.6308L28.3421 34.8023L28.1092 34.9812L27.638 35.3415C27.5344 35.4179 27.4575 35.4624 27.375 35.5191C27.2958 35.5725 27.2253 35.6266 27.1712 35.6819C27.119 35.7325 27.0752 35.7996 27.0628 35.8387C27.0451 35.8839 27.0593 35.9285 27.0514 35.9072C27.0505 35.9043 27.0412 35.8967 27.0435 35.8986C27.0344 35.8918 27.0385 35.8958 27.042 35.8967C27.0464 35.8987 27.0556 35.9012 27.0673 35.9032C27.0647 35.9029 27.0796 35.9047 27.0624 35.9028L27.0729 35.9039L27.0938 35.9061C27.1077 35.9075 27.1043 35.906 27.1104 35.9068C27.1684 35.9082 27.2463 35.8905 27.3317 35.8561C27.4187 35.8212 27.5098 35.7741 27.6156 35.7199C27.7138 35.6687 27.8106 35.6151 27.9062 35.5593C28.2917 35.3318 28.667 35.0694 29.0093 34.7662C29.1829 34.6144 29.3413 34.4585 29.5045 34.2863C29.6689 34.1153 29.854 33.9364 30.0852 33.8043C30.1457 33.771 30.1962 33.7431 30.2714 33.7136C30.3148 33.6958 30.3606 33.6842 30.4072 33.6792C30.434 33.6767 30.4632 33.6768 30.4931 33.681L30.5044 33.6829L30.5305 33.6885L30.5408 33.6917L30.5673 33.7005C30.7127 33.7592 30.7587 33.8662 30.7885 33.9497C30.8155 34.0363 30.8178 34.1138 30.8125 34.1898C30.7744 34.4808 30.6725 34.6999 30.5441 34.909C30.2747 35.3141 29.9571 35.6067 29.6978 35.9116C29.4222 36.2178 29.1454 36.511 28.8421 36.7462C28.7663 36.8049 28.691 36.862 28.613 36.9131L28.3958 37.0537C28.2513 37.1437 28.1009 37.228 27.9408 37.2911C27.8607 37.3222 27.779 37.3502 27.6957 37.3699C27.6697 37.3751 27.6653 37.3781 27.6219 37.3849L27.5734 37.3931L27.479 37.4092L27.1405 37.4666L26.4991 37.5844L26.4977 37.5847C26.4428 37.5948 26.3864 37.5936 26.3321 37.581C26.2777 37.5685 26.2265 37.5448 26.1817 37.5116C26.1369 37.4784 26.0994 37.4363 26.0716 37.3879C26.0438 37.3395 26.0262 37.2859 26.0201 37.2305C26.0139 37.175 26.0192 37.1189 26.0357 37.0656C26.0522 37.0123 26.0795 36.9629 26.1159 36.9207C26.1523 36.8784 26.197 36.8441 26.2473 36.8198C26.2976 36.7956 26.3523 36.782 26.408 36.7799L27.0599 36.7537L27.4028 36.7354L27.5724 36.7258C27.6259 36.7198 27.6788 36.7091 27.7305 36.6939C27.8427 36.6616 27.9677 36.6077 28.1044 36.5384L28.316 36.4269C28.3857 36.389 28.4537 36.3482 28.5199 36.3045C28.7916 36.1217 29.0638 35.8709 29.3395 35.5802C29.6195 35.2778 29.9459 34.9918 30.1801 34.6631C30.2973 34.506 30.41 34.3143 30.4482 34.1542C30.4528 34.1168 30.4514 34.0776 30.4446 34.0542C30.4438 34.0283 30.4184 34.0305 30.4551 34.0451C30.4606 34.0458 30.4446 34.0421 30.4404 34.0408L30.4299 34.0381L30.4459 34.0421C30.447 34.0427 30.4471 34.0428 30.4452 34.0432C30.4415 34.0442 30.43 34.0471 30.4142 34.0549C30.3829 34.0715 30.3334 34.1037 30.2948 34.1314C30.1329 34.2524 29.9912 34.4174 29.8372 34.5923C29.6842 34.7697 29.5138 34.9547 29.3385 35.1227C28.9861 35.4623 28.6002 35.7698 28.1895 36.0261C28.0867 36.0905 27.9824 36.1524 27.8766 36.2117C27.7787 36.2657 27.6679 36.3291 27.5429 36.3793C27.4174 36.4299 27.2721 36.4744 27.1039 36.4738L27.0363 36.4706L26.9792 36.4642C26.9324 36.4571 26.8864 36.4453 26.842 36.4289C26.7888 36.4094 26.7389 36.3821 26.6938 36.3477C26.6466 36.3113 26.6059 36.2672 26.5733 36.2173C26.4448 36.0051 26.4724 35.8062 26.5259 35.6493C26.5893 35.4832 26.6799 35.3745 26.78 35.2767C26.9779 35.0942 27.1967 34.9957 27.3401 34.9064L27.8357 34.5817L28.0611 34.4319L28.2831 34.2752C28.5696 34.0657 28.839 33.8763 29.035 33.6946C29.2355 33.5125 29.3546 33.3291 29.4321 33.158C29.5107 32.9887 29.5451 32.8413 29.5668 32.7411C29.5789 32.6894 29.5833 32.6563 29.5879 32.626L29.5945 32.5825C29.6016 32.537 29.6185 32.4935 29.6439 32.4551C29.6693 32.4167 29.7027 32.3841 29.7418 32.3597C29.7808 32.3353 29.8247 32.3196 29.8704 32.3137C29.9161 32.3078 29.9626 32.3117 30.0066 32.3254C30.0506 32.339 30.0912 32.3619 30.1256 32.3926C30.1599 32.4233 30.1873 32.461 30.2058 32.5032C30.2243 32.5454 30.2335 32.5911 30.2328 32.6372C30.2321 32.6832 30.2215 32.7286 30.2016 32.7702L30.1998 32.7743Z" fill="#D5745E"/>
<path d="M30.7844 32.5351C30.5752 32.5981 30.3658 32.4522 30.1958 32.315C30.0907 32.2301 29.9853 32.1451 29.887 32.0523C29.6304 31.8095 29.4257 31.5173 29.2852 31.1932C30.0531 30.9824 30.6942 30.5206 31.1827 29.8918C31.2055 29.8625 31.2296 29.8315 31.2644 29.8187C31.3063 29.8031 31.3527 29.8178 31.3951 29.8322C31.8628 29.9906 32.3428 30.1102 32.8302 30.1897C33.2666 30.261 33.7433 30.3161 34.0587 30.6261C33.3637 30.8242 32.7352 31.2068 32.2402 31.7333C32.1416 31.8384 32.0481 31.9497 31.9338 32.0375C31.791 32.1472 31.6217 32.216 31.4547 32.2835C31.2352 32.3721 31.0112 32.4668 30.7844 32.5351Z" fill="#C25942"/>
<path d="M30.9438 31.8628L31.0233 31.8983C31.0472 31.9085 31.0538 31.9095 31.0746 31.9201C31.0994 31.9265 31.1305 31.9376 31.1672 31.9407C31.3086 31.9642 31.5595 31.9481 31.8447 31.8C31.9894 31.729 32.1298 31.6314 32.2833 31.5034C32.4367 31.3783 32.592 31.2281 32.7645 31.0728C32.9378 30.9193 33.1268 30.7565 33.3495 30.62C33.398 30.5885 33.4781 30.5436 33.5602 30.5193C33.6425 30.4963 33.7539 30.4703 33.8923 30.5303C33.9252 30.5454 33.9573 30.5665 33.9838 30.591L34.0034 30.6098L34.0191 30.6271L34.0383 30.6518L34.0527 30.6736C34.0887 30.7325 34.1033 30.7875 34.1122 30.8333L34.1175 30.8665L34.121 30.9029L34.1242 30.9479C34.1253 30.9827 34.1254 31.0366 34.1213 31.0734C34.0904 31.3905 33.9264 31.6326 33.7752 31.8337C33.6182 32.0364 33.4673 32.2057 33.3107 32.3808C33.1556 32.553 32.9992 32.7179 32.8389 32.8657C32.6761 33.015 32.5237 33.1455 32.3596 33.2618C32.0435 33.4912 31.7395 33.6426 31.5135 33.7227C31.2885 33.8069 31.149 33.8352 31.149 33.8352L31.1335 33.8384C31.0826 33.8487 31.0301 33.8485 30.9793 33.8377C30.9285 33.8269 30.8804 33.8057 30.8381 33.7756C30.7957 33.7455 30.76 33.707 30.7332 33.6625C30.7063 33.6181 30.6889 33.5685 30.6819 33.517C30.675 33.4656 30.6787 33.4132 30.6928 33.3632C30.7069 33.3132 30.7311 33.2666 30.7639 33.2263C30.7968 33.1861 30.8375 33.153 30.8837 33.1291C30.9298 33.1052 30.9804 33.091 31.0322 33.0875L31.1052 33.0825C31.1527 33.0771 31.2237 33.0726 31.313 33.0522C31.4905 33.0135 31.7503 32.9355 32.0405 32.7697C32.1796 32.6893 32.3409 32.5843 32.4909 32.4624C32.6538 32.3317 32.8095 32.1923 32.9573 32.0449C33.1093 31.8903 33.2766 31.7173 33.4175 31.5511C33.5555 31.383 33.6649 31.2001 33.6817 31.0313C33.6841 31.0084 33.6843 31.0017 33.6851 30.9765L33.6826 30.9314L33.6819 30.9202L33.6822 30.9229L33.6807 30.9115C33.6727 30.8783 33.6803 30.9161 33.7085 30.9273C33.7359 30.9366 33.7197 30.9276 33.6896 30.9392C33.6574 30.9503 33.6318 30.9625 33.5811 30.9957C33.3993 31.1081 33.2342 31.2536 33.0783 31.4085L32.6137 31.8729C32.4599 32.0224 32.2877 32.1635 32.1187 32.2726C31.9587 32.376 31.7868 32.4596 31.6067 32.5217C31.4393 32.5779 31.2769 32.6024 31.1392 32.6037C31.0703 32.6073 31.0086 32.5984 30.9522 32.5958C30.9016 32.5888 30.8512 32.5802 30.8011 32.57L30.7162 32.551C30.6665 32.5399 30.6198 32.5185 30.5789 32.4882C30.5381 32.4579 30.504 32.4194 30.479 32.3752C30.4539 32.3309 30.4384 32.2819 30.4334 32.2313C30.4284 32.1807 30.4341 32.1296 30.4501 32.0813C30.466 32.033 30.4919 31.9886 30.5261 31.9509C30.5603 31.9132 30.602 31.8832 30.6485 31.8626C30.695 31.842 30.7453 31.8314 30.7962 31.8314C30.847 31.8315 30.8973 31.8422 30.9438 31.8628Z" fill="#D5745E"/>
<path d="M33.0865 29.8744C32.8618 29.8404 32.6242 29.8844 32.4108 29.8062C32.1777 29.7208 32.0003 29.4982 31.7539 29.4676C31.8725 28.8181 32.0347 28.1773 32.2394 27.5496C32.965 27.8787 33.7987 27.9637 34.5757 27.7878C34.6529 27.7702 34.757 27.7627 34.7882 27.8355C34.8 27.8631 34.7963 27.8946 34.7913 27.9242C34.7553 28.1394 34.6689 28.3423 34.597 28.5485C34.5248 28.7554 34.4968 28.9729 34.4482 29.1857C34.4044 29.3768 34.2657 29.5432 34.2717 29.7425C34.2734 29.7992 34.2856 29.8579 34.3209 29.9022C34.3562 29.9466 34.4189 29.9724 34.4718 29.9519C34.1991 30.389 33.4514 29.9295 33.0865 29.8744Z" fill="#C25942"/>
<path d="M35.097 28.2737C35.0892 28.4092 35.0735 28.5442 35.05 28.6778C35.0441 28.7073 35.0381 28.7387 35.0304 28.7681C35.0203 28.8289 35.0072 28.8891 34.9911 28.9486C34.9832 28.9898 34.9735 29.031 34.9636 29.0703C34.9283 29.2017 34.897 29.3253 34.8577 29.4568C34.8381 29.5236 34.8164 29.5902 34.7851 29.6589C34.7548 29.7289 34.7159 29.7948 34.6693 29.8552C34.5869 29.9591 34.4731 30.0514 34.326 30.0886C34.2997 30.0959 34.2728 30.1012 34.2456 30.1043H34.2357C34.201 30.1051 34.1672 30.0929 34.141 30.07C34.1149 30.0471 34.0983 30.0152 34.0945 29.9807V29.9768C34.0925 29.9552 34.0945 29.9336 34.1023 29.9159L34.1043 29.9139V29.912C34.233 29.5861 34.3437 29.2533 34.4359 28.9153C34.469 28.7964 34.4991 28.6767 34.5262 28.5563C34.5674 28.3875 34.6027 28.2149 34.6321 28.0422C34.6341 28.0383 34.6341 28.0324 34.6361 28.0266C34.6439 27.9815 34.6517 27.9343 34.6596 27.8873C34.6631 27.8631 34.6751 27.8409 34.6934 27.8247C34.7117 27.8086 34.7352 27.7994 34.7596 27.7989C34.7655 27.7989 34.7714 27.8009 34.7772 27.8009C34.8322 27.8108 34.8695 27.8618 34.8636 27.9167H34.8616C34.8462 28.042 34.8279 28.1669 34.8067 28.2914C34.7871 28.4228 34.7616 28.5563 34.7361 28.6877C34.7145 28.7838 34.6948 28.88 34.6713 28.9761C34.6144 29.2134 34.5517 29.4508 34.4771 29.6843C34.5124 29.6444 34.5428 29.6003 34.5673 29.5529C34.5948 29.4999 34.6183 29.445 34.6399 29.3842C34.683 29.2644 34.7262 29.1369 34.7674 29.0134C34.7929 28.9349 34.8164 28.8564 34.838 28.778C34.8518 28.7329 34.8635 28.6877 34.8753 28.6406C34.8891 28.5877 34.9008 28.5347 34.9106 28.4817C34.9243 28.4092 34.9361 28.3365 34.944 28.262C34.9597 28.1345 34.9616 28.007 34.9519 27.8794C34.9362 27.6989 34.893 27.5183 34.8146 27.3536C34.783 27.2876 34.7456 27.2246 34.7027 27.1653C34.6996 27.1616 34.6972 27.1573 34.6958 27.1527C34.6944 27.1481 34.694 27.1433 34.6946 27.1385C34.6951 27.1337 34.6966 27.1291 34.6991 27.1249C34.7015 27.1208 34.7047 27.1171 34.7086 27.1143C34.7243 27.1025 34.7478 27.1044 34.7596 27.1202C34.7772 27.1398 34.793 27.1595 34.8067 27.181C34.8243 27.2026 34.8381 27.2242 34.8518 27.2478C34.9734 27.4322 35.0441 27.646 35.0774 27.8638C35.097 27.9991 35.1029 28.1364 35.097 28.2737Z" fill="#D5745E"/>
<path d="M34.8515 27.2476C34.8515 27.2516 34.8495 27.2535 34.8495 27.2575C34.8377 27.2909 34.826 27.3223 34.8142 27.3536C34.7616 27.4968 34.704 27.6381 34.6415 27.7773C34.6161 27.8371 34.5886 27.896 34.5591 27.9539C34.5434 27.9892 34.5257 28.0244 34.5081 28.0598C34.4568 28.1637 34.4032 28.2664 34.3472 28.3679C34.3276 28.4012 34.3099 28.4365 34.2903 28.4699C34.0176 28.9525 33.7096 29.4096 33.3761 29.8491C33.3545 29.8766 33.3329 29.906 33.3113 29.9335C33.2345 30.0336 33.156 30.1323 33.0759 30.2297C32.8679 30.4847 32.6502 30.7319 32.4265 30.9752C32.2303 31.1871 32.0263 31.3931 31.8203 31.5972C31.8183 31.5991 31.8183 31.5972 31.8183 31.5972C31.7039 31.711 31.5874 31.8229 31.4691 31.9327C31.3137 32.0803 31.1554 32.2248 30.9944 32.3663C30.9355 32.4193 30.8786 32.4722 30.8197 32.5232L30.7726 32.5645C30.5974 32.7158 30.4208 32.8655 30.2429 33.0137L30.0428 33.1785C30.0134 33.2021 29.9839 33.2276 29.9545 33.2511C29.774 33.3986 29.5922 33.5445 29.409 33.6886C29.2459 33.8187 29.0798 33.945 28.9108 34.0673C28.9021 34.0745 28.8929 34.081 28.8833 34.0869C28.8264 34.13 28.7714 34.1693 28.7145 34.2086C28.6949 34.2242 28.6734 34.238 28.6537 34.2517C28.427 34.4121 28.196 34.5665 27.9612 34.7147C27.9239 34.7363 27.8866 34.7598 27.8513 34.7834C27.8356 34.7952 27.8179 34.8049 27.8023 34.8148C27.5518 34.9682 27.298 35.1161 27.041 35.2582C26.8958 35.3367 26.7507 35.4151 26.6035 35.4897C26.5112 35.5367 26.4171 35.5838 26.3249 35.629C26.1198 35.7305 25.9124 35.8274 25.7029 35.9193C25.6559 35.9409 25.6107 35.9605 25.5636 35.9802L25.4695 36.0213C25.4067 36.0468 25.3439 36.0743 25.2811 36.0998L24.9574 36.2293C24.928 36.2411 24.8966 36.2528 24.8652 36.2646C24.6916 36.3309 24.517 36.3944 24.3414 36.4549C23.3884 36.7868 22.4083 37.0349 21.4123 37.1965C20.9039 37.2809 20.392 37.3417 19.878 37.3789C19.7387 37.3907 19.6014 37.3985 19.4622 37.4044C19.4171 37.4084 19.3719 37.4103 19.3248 37.4103C19.2875 37.4123 19.2483 37.4143 19.209 37.4143C19.1902 37.4169 19.1711 37.4176 19.1521 37.4162C19.0835 37.4202 19.0128 37.4221 18.9442 37.4221C18.8598 37.4241 18.7774 37.4261 18.693 37.4261C18.3842 37.4267 18.0755 37.4188 17.7671 37.4025C17.7337 37.4025 17.7023 37.4006 17.669 37.3986C16.8941 37.3535 16.1113 37.2554 15.3717 37.0337C15.3697 37.0318 15.3677 37.0318 15.3677 37.0318C15.0577 36.9376 14.7537 36.8219 14.4633 36.6806C14.4418 36.6688 14.4182 36.659 14.3966 36.6472C14.3012 36.5986 14.207 36.5475 14.1141 36.4942C14.0906 36.4785 14.067 36.4648 14.0435 36.4491C13.9017 36.3626 13.7648 36.2683 13.6334 36.1666C13.4635 36.0383 13.3035 35.8973 13.1548 35.7449C12.9396 35.5274 12.7512 35.2851 12.5937 35.0229C12.5564 34.9601 12.5211 34.8954 12.4877 34.8306C12.4123 34.6869 12.3487 34.5373 12.2974 34.3833C12.2894 34.3634 12.2822 34.3431 12.2759 34.3225C11.6559 32.3802 13.3431 30.5909 14.9892 29.5276C15.7386 29.3609 16.5194 29.3294 17.2807 29.4433C17.5024 29.2608 17.7044 29.0549 17.8771 28.8253C18.0753 28.5663 18.2362 28.2798 18.452 28.0346C18.7522 27.9385 19.0524 27.8443 19.3526 27.7501H19.3545C19.5016 27.705 19.6488 27.6579 19.796 27.6108C20.2858 27.4539 20.7737 27.291 21.2595 27.1223C21.8069 27.244 22.3406 27.4264 22.8428 27.6755C22.8801 27.6362 22.9154 27.5951 22.9507 27.5519C23.2019 27.2341 23.3667 26.8574 23.5844 26.5141C23.6158 26.4651 23.6491 26.418 23.6824 26.3689C23.6275 26.3434 23.5725 26.3219 23.5176 26.2964C24.1729 26.0491 24.8262 25.7961 25.4775 25.5371C25.5902 25.4918 25.7027 25.446 25.8149 25.3997C26.1297 25.4409 26.4403 25.5098 26.7429 25.6057C26.8578 25.4779 26.9542 25.3346 27.0293 25.18C27.0921 25.0485 27.1411 24.9112 27.1921 24.7758C27.3409 24.7057 27.4899 24.6364 27.6394 24.5679C28.3183 24.254 29.0029 23.9558 29.7112 23.7321C29.9663 23.7969 30.2174 23.9068 30.4547 24.0401C30.7411 23.8812 31.0079 23.6772 31.2571 23.4476C31.2395 23.4358 31.2198 23.424 31.2022 23.4103C31.936 23.3357 32.7815 23.3808 33.5094 23.632C33.578 23.6555 33.6428 23.681 33.7056 23.7065C35.2988 24.3715 35.3322 25.8684 34.8515 27.2476Z" fill="#DBA05A"/>
<path d="M29.7251 26.7151C29.4386 25.8226 28.7937 25.0262 27.9276 24.6677C27.8334 24.6293 27.7373 24.5958 27.6397 24.5674C27.4906 24.6362 27.3418 24.7055 27.1931 24.7751C27.1421 24.9117 27.0928 25.0493 27.0293 25.1803C26.9539 25.3348 26.8576 25.4782 26.743 25.6063C27.2742 25.7762 27.7761 26.03 28.2127 26.3776C29.1463 27.1212 29.7551 28.2943 29.7106 29.4871C29.9638 28.5847 30.0116 27.6076 29.7251 26.7151ZM22.4909 33.6348C22.6507 34.0077 22.7946 34.4123 23.1111 34.6659C23.7134 33.3856 23.7005 31.8321 23.077 30.562C22.3674 29.1165 20.9266 28.128 19.3522 27.7507C19.0521 27.8448 18.7516 27.9384 18.452 28.0342C18.2372 28.2793 18.0745 28.5655 17.878 28.8257C17.7051 29.0546 17.5032 29.2606 17.2812 29.4422C17.6225 29.4928 17.9596 29.5701 18.2868 29.678C20.1704 30.2988 21.71 31.8118 22.4909 33.6348ZM25.8465 27.8803C25.2175 27.2201 24.477 26.746 23.6824 26.3697C23.6484 26.4172 23.6156 26.4653 23.5846 26.514C23.3672 26.857 23.2016 27.2338 22.9499 27.5525C22.9165 27.595 22.8806 27.6362 22.8432 27.6762C22.9615 27.7351 23.08 27.794 23.1946 27.8599C24.036 28.3434 24.7696 29.0113 25.336 29.7988C25.5642 30.1161 26.7541 31.7847 26.5769 32.1568C27.2989 30.6403 27.0145 29.1059 25.8465 27.8803ZM31.6797 23.7889C31.5484 23.6633 31.4054 23.5521 31.2569 23.4478C31.0078 23.6769 30.7416 23.8803 30.4546 24.0395C30.558 24.0968 30.6595 24.1575 30.7589 24.2214C31.4927 24.6951 32.1766 25.3078 32.512 26.1143C32.6142 25.2669 32.2963 24.379 31.6797 23.7889Z" fill="#C79252"/>
<path d="M35.0235 32.1955C35.0298 32.2466 35.0271 32.2983 35.0157 32.3485C34.9842 32.4917 34.8862 32.5937 34.7743 32.6938L34.7724 32.6957C34.6291 32.9586 34.4702 33.2176 34.3074 33.4687C34.2897 33.8415 34.4153 34.2613 34.2995 34.6243C34.1308 35.1638 33.5069 35.4051 32.9497 35.4856C32.9163 35.4915 32.8811 35.4954 32.8457 35.5012C32.6453 35.7736 32.4393 36.0418 32.2277 36.3056C32.2218 36.3409 32.2139 36.3762 32.2042 36.4115C32.1218 36.6764 31.8648 36.8255 31.6451 37.008C31.5563 37.1138 31.4654 37.2178 31.3723 37.3199C31.1644 37.6809 31.1055 38.2027 30.7053 38.2753C30.6347 38.2871 30.5582 38.2831 30.4856 38.2792C30.307 38.4617 30.1265 38.6422 29.9441 38.8207C26.7481 41.9283 21.8237 44.1728 17.3075 43.492C15.6163 43.237 13.6093 42.5876 12.4184 41.2986C11.9789 40.8239 11.6906 40.2608 11.6592 39.6016C11.6473 39.3466 11.669 39.0954 11.7023 38.8442C11.5985 38.8097 11.4913 38.7867 11.3825 38.7756C10.9647 38.7286 10.5448 38.811 10.1328 38.8953C10.4879 38.1851 11.0844 37.6652 11.7494 37.2512C11.7945 37.1237 11.8692 37.008 11.9731 36.906L11.9555 36.8687L11.9143 36.7588L11.8712 36.6352C11.858 36.5992 11.8429 36.5638 11.8261 36.5293C11.7633 36.3841 11.6534 36.2271 11.6143 35.9858C11.6043 35.9215 11.6023 35.8563 11.6083 35.7916C11.6129 35.7149 11.6294 35.6394 11.6574 35.5679C11.6712 35.5306 11.673 35.5247 11.6848 35.5031L11.6967 35.4736L11.7045 35.4599L11.7183 35.4344C11.7282 35.4167 11.7399 35.401 11.7497 35.3834C11.7924 35.319 11.8432 35.2603 11.9008 35.2088C11.9675 35.1499 12.0498 35.0891 12.1577 35.046C12.2103 35.0009 12.266 34.9596 12.3245 34.9224C12.3775 34.889 12.4304 34.8576 12.4873 34.8301C12.4119 34.6864 12.3483 34.5369 12.297 34.3829C12.4321 34.5013 12.5695 34.6171 12.7091 34.7301C13.1367 35.0734 13.586 35.3854 14.0569 35.6522C14.0824 35.6679 14.1099 35.6817 14.1373 35.6973C14.1707 35.7169 14.206 35.7346 14.2413 35.7542C14.3603 35.8171 14.4806 35.8773 14.6023 35.9347C14.6023 35.9367 14.6043 35.9347 14.6043 35.9347C14.877 36.0642 15.1537 36.178 15.4401 36.2701C15.699 36.3565 15.962 36.4291 16.2328 36.482C16.374 36.5095 16.5159 36.5331 16.6585 36.5526C17.2765 36.6331 17.8572 36.6232 18.4085 36.5447C18.6681 36.5072 18.9255 36.4555 19.1795 36.3898C19.3984 36.3312 19.6144 36.2625 19.8269 36.1838C20.0159 36.1152 20.2024 36.04 20.3861 35.9581C20.4446 35.9328 20.5028 35.9067 20.5606 35.8797H20.5626C20.7139 35.8089 20.8637 35.735 21.0118 35.658C21.518 35.3971 22.0183 35.0969 22.5245 34.781C22.6678 34.6907 22.8109 34.6025 22.9522 34.5103C23.0542 34.4475 23.1542 34.3828 23.2543 34.32C23.2838 34.3004 23.3132 34.2826 23.3407 34.2631C24.4461 33.5524 25.5302 32.8091 26.5916 32.0343C26.6092 32.0225 26.6289 32.0088 26.6465 31.9951C27.1427 31.6336 27.6338 31.2654 28.1199 30.8905C28.7752 30.3843 29.4304 29.8546 30.0504 29.2896C30.7998 28.6108 31.4982 27.8829 32.0868 27.0903C32.7657 26.18 33.3032 25.1873 33.6112 24.0867C33.6465 23.9611 33.6778 23.8336 33.7054 23.7061C35.2985 24.3711 35.3318 25.8681 34.8511 27.2473C34.9727 27.4317 35.0434 27.6455 35.0768 27.8633C35.0964 27.9987 35.1023 28.136 35.0964 28.2734C35.0885 28.4089 35.0728 28.5438 35.0493 28.6775C35.0434 28.707 35.0375 28.7384 35.0297 28.7678C35.0777 28.9008 35.1158 29.0372 35.1435 29.1759C35.6925 30.1021 35.4983 31.1695 35.0235 32.1955Z" fill="black" fill-opacity="0.0627451"/>
</g>
<defs>
<clipPath id="clip0_45_113">
<rect width="48" height="48" fill="white"/>
</clipPath>
</defs>
</svg>
