<svg width="48" height="48" viewBox="0 0 48 48" fill="none" xmlns="http://www.w3.org/2000/svg">
<g clip-path="url(#clip0_45_75)">
<path d="M16.0373 11.2069L13.6369 13.6074L8.69396 8.66447C8.4874 8.75873 8.26289 8.80718 8.03584 8.80649C7.61142 8.80649 7.20437 8.63789 6.90426 8.33778C6.60415 8.03766 6.43555 7.63062 6.43555 7.2062C6.43555 6.78178 6.60415 6.37474 6.90426 6.07462C7.20437 5.77451 7.61142 5.60591 8.03584 5.60591C8.03584 5.18148 8.20444 4.77444 8.50455 4.47433C8.80467 4.17422 9.21171 4.00562 9.63613 4.00562C10.0606 4.00562 10.4676 4.17422 10.7677 4.47433C11.0678 4.77444 11.2364 5.18148 11.2364 5.60591C11.2371 5.83296 11.1887 6.05747 11.0944 6.26403L16.0373 11.2069Z" fill="#F0DE9C"/>
<path d="M24.1092 19.5735C23.683 20.3233 23.0894 20.9647 22.3747 21.4476C21.66 21.9305 20.8435 22.242 19.9888 22.3576C19.134 22.4733 18.2641 22.3901 17.4468 22.1145C16.6294 21.8389 15.8867 21.3783 15.2766 20.7687C13.0892 18.5813 10.8268 12.7712 13.0132 10.5838C14.5694 9.02854 17.9591 9.72467 20.5735 11.0439C21.6337 11.579 22.5669 12.2161 23.198 12.8472C24.0649 13.7143 24.6234 14.8417 24.788 16.0567C24.9526 17.2716 24.7141 18.507 24.1092 19.5735Z" fill="#F0C033"/>
<path d="M37.6401 2.40511C37.6405 2.16618 37.5874 1.93019 37.4847 1.71447C37.3819 1.49876 37.2322 1.30878 37.0465 1.15849C36.8607 1.0082 36.6437 0.901403 36.4113 0.845947C36.1789 0.790491 35.937 0.78778 35.7034 0.838013C35.4698 0.888245 35.2504 0.990146 35.0614 1.13624C34.8723 1.28233 34.7184 1.4689 34.6108 1.68226C34.5033 1.89562 34.4449 2.13036 34.4399 2.36923C34.4349 2.60811 34.4835 2.84507 34.5821 3.06273L29.6387 8.00613L32.0391 10.4066L36.9825 5.46316C37.2001 5.56139 37.4369 5.60969 37.6755 5.60451C37.9142 5.59934 38.1487 5.54082 38.3618 5.43326C38.5749 5.32569 38.7612 5.1718 38.9071 4.98286C39.053 4.79393 39.1548 4.57474 39.205 4.34136C39.2552 4.10798 39.2525 3.86633 39.1972 3.63411C39.1418 3.4019 39.0352 3.18502 38.8852 2.99935C38.7351 2.81369 38.5454 2.66396 38.33 2.56114C38.1146 2.45831 37.8788 2.405 37.6401 2.40511Z" fill="#F0DE9C"/>
<path d="M33.5087 10.7776C33.2446 13.2541 31.8064 16.1606 30.3991 17.5679C29.8794 18.0899 29.2618 18.5044 28.5817 18.7874C27.9017 19.0705 27.1724 19.2166 26.4358 19.2174C25.6991 19.2183 24.9696 19.0738 24.2888 18.7923C23.6081 18.5108 22.9896 18.0977 22.4687 17.5768C21.9478 17.056 21.5348 16.4374 21.2533 15.7567C20.9718 15.076 20.8273 14.3464 20.8281 13.6098C20.829 12.8731 20.9751 12.1439 21.2581 11.4638C21.5412 10.7837 21.9556 10.1661 22.4777 9.64644C24.6651 7.45904 30.4751 5.19663 32.6625 7.38303C33.4427 8.16317 33.6567 9.4044 33.5087 10.7776Z" fill="#F0C033"/>
<path d="M44.8414 16.0077C44.8415 16.428 44.7588 16.8442 44.598 17.2326C44.4372 17.621 44.2015 17.9739 43.9043 18.2711C43.607 18.5683 43.2542 18.8041 42.8658 18.9649C42.4774 19.1257 42.0612 19.2084 41.6408 19.2082H31.9941C28.6175 19.2082 27.5423 14.6554 30.5628 13.1451L42.441 7.20605C42.4422 8.15191 42.2564 9.08868 41.8944 9.96252C41.5324 10.8364 41.0013 11.6301 40.3316 12.298C40.1523 12.4778 39.9633 12.6478 39.7655 12.8071H41.6408C41.7632 12.807 41.8854 12.814 42.0069 12.8281C42.7872 12.9179 43.5072 13.2916 44.0299 13.8779C44.5526 14.4642 44.8414 15.2222 44.8414 16.0077Z" fill="#F0C033"/>
<path d="M8.83594 16.8079H47.243V20.0084H8.83594V16.8079Z" fill="#C6D6E2"/>
<path d="M40.0422 47.2135H16.0378L12.0371 20.0085H44.043L40.0422 47.2135Z" fill="#E64042"/>
<path d="M19.2385 32.0107C19.2386 32.2781 19.1717 32.5413 19.0438 32.7762C18.916 33.0111 18.7313 33.2102 18.5066 33.3552C18.282 33.5003 18.0245 33.5867 17.7578 33.6066C17.4911 33.6265 17.2237 33.5792 16.9801 33.469L14.9557 35.4934L12.0372 38.4119L9.63672 36.0115L14.5796 31.0686C14.4814 30.851 14.4332 30.6142 14.4384 30.3755C14.4436 30.1369 14.5021 29.9024 14.6097 29.6893C14.7172 29.4762 14.8711 29.2899 15.06 29.144C15.249 28.9981 15.4681 28.8963 15.7015 28.8461C15.9349 28.7959 16.1765 28.7985 16.4087 28.8538C16.6409 28.9091 16.8578 29.0157 17.0435 29.1656C17.2292 29.3156 17.379 29.5053 17.4819 29.7207C17.5848 29.936 17.6382 30.1717 17.6382 30.4104C17.8483 30.4104 18.0565 30.4517 18.2506 30.5321C18.4448 30.6125 18.6213 30.7304 18.7699 30.879C18.9185 31.0276 19.0364 31.2041 19.1168 31.3983C19.1972 31.5924 19.2385 31.8006 19.2385 32.0107Z" fill="#F0DE9C"/>
<path d="M14.9546 35.4932L12.0361 38.4117L11.584 37.9596C12.4015 36.785 13.5877 35.917 14.9546 35.4932Z" fill="#F0C033"/>
<path d="M11.192 44.6248C10.9523 44.9613 10.6864 45.2784 10.3968 45.573C9.34558 46.6195 7.92212 47.2063 6.43875 47.2047C4.95538 47.203 3.53324 46.613 2.48434 45.5641C1.43544 44.5152 0.845429 43.093 0.843754 41.6097C0.842078 40.1263 1.42887 38.7028 2.4754 37.6516C4.6628 35.4642 10.4729 33.2018 12.6603 35.3882C12.9191 35.6518 13.1225 35.9647 13.2584 36.3083C14.1645 38.5447 12.8163 42.3744 11.192 44.6248Z" fill="#F0C033"/>
<path d="M31.2397 41.6125C31.5563 41.6125 31.8657 41.5186 32.1288 41.3428C32.392 41.1669 32.5971 40.917 32.7182 40.6246C32.8393 40.3321 32.871 40.0104 32.8093 39.7C32.7475 39.3895 32.5951 39.1044 32.3713 38.8806C32.1475 38.6568 31.8624 38.5044 31.5519 38.4426C31.2415 38.3809 30.9198 38.4126 30.6273 38.5337C30.3349 38.6548 30.085 38.8599 29.9091 39.1231C29.7333 39.3862 29.6395 39.6957 29.6395 40.0122H23.2383V43.2127H29.6395C29.6395 43.5293 29.7333 43.8387 29.9091 44.1018C30.085 44.365 30.3349 44.5701 30.6273 44.6912C30.9198 44.8123 31.2415 44.844 31.5519 44.7823C31.8624 44.7205 32.1475 44.5681 32.3713 44.3443C32.5951 44.1205 32.7475 43.8354 32.8093 43.5249C32.871 43.2145 32.8393 42.8928 32.7182 42.6003C32.5971 42.3079 32.392 42.058 32.1288 41.8821C31.8657 41.7063 31.5563 41.6125 31.2397 41.6125Z" fill="#F0DE9C"/>
<path d="M25.639 41.6125C25.639 44.7059 19.9307 47.2135 16.8374 47.2135C15.3519 47.2135 13.9272 46.6234 12.8768 45.573C11.8264 44.5226 11.2363 43.098 11.2363 41.6125C11.2363 40.127 11.8264 38.7024 12.8768 37.652C13.9272 36.6016 15.3519 36.0115 16.8374 36.0115C19.9307 36.0115 25.639 38.5191 25.639 41.6125Z" fill="#F0C033"/>
</g>
<defs>
<clipPath id="clip0_45_75">
<rect width="48" height="48" fill="white"/>
</clipPath>
</defs>
</svg>
