<svg width="48" height="48" viewBox="0 0 48 48" fill="none" xmlns="http://www.w3.org/2000/svg">
<g clip-path="url(#clip0_45_278)">
<path d="M43.6926 33.4919L43.0184 31.8631L35.2648 13.1351C35.1934 12.9628 35.0565 12.826 34.8843 12.7545L14.5106 4.3173C14.4218 4.28024 14.3262 4.26193 14.2299 4.26352C14.1336 4.26512 14.0387 4.28659 13.9511 4.32659C13.8635 4.36638 13.785 4.42375 13.7205 4.49514C13.6559 4.56654 13.6067 4.65043 13.576 4.74162L12.3124 8.4753L0.14768 44.4159L0.144399 44.4271C-0.187101 45.4083 0.0615236 46.4736 0.794086 47.2061C1.16065 47.5727 1.61018 47.8181 2.09074 47.9301C2.5714 48.0421 3.08318 48.0209 3.57368 47.8552L26.6289 40.0564L27.9056 38.7371L33.7738 37.6393L39.536 35.6903L43.2689 34.4274C43.3601 34.3964 43.4439 34.3471 43.5151 34.2824C43.5864 34.2178 43.6436 34.1391 43.6832 34.0514C43.7229 33.9638 43.7443 33.8689 43.7459 33.7726C43.7475 33.6764 43.7293 33.5809 43.6926 33.4919Z" fill="#F9D11F"/>
<path d="M43.269 34.4275L39.536 35.6904L33.7739 37.6395L27.9057 38.7373L26.6289 40.0566L3.57364 47.8553C3.08305 48.0211 2.57126 48.0423 2.0907 47.9303C1.61005 47.8182 1.16061 47.573 0.794045 47.2063C0.0614824 46.4737 -0.187049 45.4084 0.144357 44.4273L0.147639 44.416C0.637747 44.8397 1.22994 45.1281 1.86568 45.2528C2.50142 45.3774 3.15868 45.334 3.77248 45.1268L43.0183 31.8633L43.6925 33.4921C43.7292 33.581 43.7473 33.6765 43.7457 33.7727C43.744 33.8689 43.7227 33.9638 43.6831 34.0514C43.6434 34.1391 43.5862 34.2176 43.515 34.2823C43.4437 34.347 43.36 34.3964 43.269 34.4275Z" fill="#FFA402"/>
<path d="M43.2691 34.4274L39.5362 35.6903C39.344 34.8741 39.1175 34.0663 38.8573 33.2692C37.44 28.9229 34.659 23.693 29.3762 18.4088C23.0665 12.1029 17.0817 9.61155 12.339 8.50052L12.3125 8.4753L13.5761 4.74162C13.6069 4.65044 13.656 4.56655 13.7206 4.49516C13.7851 4.42377 13.8636 4.36639 13.9512 4.32659C14.0388 4.28659 14.1338 4.26512 14.23 4.26352C14.3263 4.26193 14.4219 4.28024 14.5107 4.3173L34.8844 12.7545C35.0566 12.826 35.1935 12.9628 35.2649 13.1351L43.0185 31.8631L43.6927 33.4919C43.7294 33.5809 43.7476 33.6764 43.746 33.7726C43.7444 33.8689 43.7231 33.9637 43.6834 34.0514C43.6438 34.1391 43.5866 34.2178 43.5153 34.2824C43.4441 34.3471 43.3603 34.3964 43.2691 34.4274Z" fill="#FDEDA5"/>
<path d="M43.2692 34.4275L39.5363 35.6904C39.344 34.8742 39.1176 34.0665 38.8574 33.2693L43.0186 31.8633L43.6928 33.4921C43.7295 33.581 43.7477 33.6766 43.7461 33.7728C43.7445 33.869 43.7232 33.9639 43.6835 34.0516C43.6439 34.1393 43.5867 34.2179 43.5154 34.2826C43.4441 34.3473 43.3603 34.3966 43.2692 34.4275Z" fill="#FBDF63"/>
<path d="M47.9399 32.7588C46.8951 27.7788 43.9583 20.151 35.9018 12.0943C27.844 4.04025 20.2151 1.10485 15.2339 0.0600018C13.7695 -0.246936 12.3269 0.653345 11.9471 2.08331C11.9346 2.13169 11.9231 2.18033 11.9126 2.22919C11.7581 2.96306 11.8994 3.71156 12.3097 4.33931C12.4161 4.50316 12.5394 4.65537 12.6776 4.79344C13.0588 5.17463 13.542 5.43778 14.0817 5.55056C18.3178 6.43894 24.8529 8.98322 31.9349 16.0614C39.0143 23.1423 41.56 29.6762 42.4489 33.9104C42.5596 34.443 42.8237 34.9315 43.2087 35.3158L43.2093 35.3165C43.8822 35.9893 44.8401 36.2751 45.7702 36.0795C45.8194 36.0692 45.8682 36.0575 45.9167 36.0443C46.5876 35.8667 47.1611 35.4536 47.5429 34.8689C47.9532 34.2412 48.0937 33.492 47.9399 32.7588Z" fill="#F79E60"/>
<path d="M47.94 32.7588C46.8953 27.7788 43.9585 20.151 35.902 12.0943C27.8442 4.04025 20.2153 1.10485 15.234 0.0600018C13.7697 -0.246936 12.3271 0.653346 11.9473 2.08331C12.3712 1.96981 12.8159 1.95799 13.2452 2.04881C18.2265 3.09366 25.8554 6.02906 33.9133 14.0831C41.9698 22.1398 44.9066 29.7676 45.9513 34.7476C46.0428 35.1838 46.0303 35.626 45.9168 36.0443C46.5877 35.8667 47.1612 35.4536 47.543 34.8689C47.9534 34.2412 48.0939 33.492 47.94 32.7588Z" fill="#D77D41"/>
<path d="M22.2603 18.6235C22.2602 17.4411 21.7998 16.3295 20.9636 15.4932L20.9632 15.4928C19.2366 13.7667 16.4273 13.7667 14.7008 15.4928C13.8644 16.3291 13.4038 17.4409 13.4038 18.6236C13.4038 19.8061 13.8643 20.9177 14.7004 21.7539C14.7006 21.7541 14.7007 21.7542 14.7008 21.7544C16.4274 23.4805 19.2367 23.4805 20.9632 21.7544C21.7996 20.9181 22.2602 19.8062 22.2603 18.6235ZM18.5793 29.4133L18.5791 29.413C16.8525 27.6869 14.0432 27.6869 12.3167 29.413C11.4802 30.2493 11.0195 31.3611 11.0195 32.5438C11.0195 33.7263 11.48 34.8379 12.3162 35.6741C12.3163 35.6743 12.3165 35.6744 12.3167 35.6745C14.0432 37.4006 16.8526 37.4006 18.5791 35.6745C19.4155 34.8382 19.8761 33.7265 19.8761 32.5437C19.8761 31.3612 19.4156 30.2496 18.5793 29.4133ZM33.7743 37.6402L26.6233 40.0407L26.315 39.7325C25.79 39.2074 25.4134 38.5736 25.2053 37.8829C25.0808 37.4673 25.0178 37.0358 25.0184 36.6021C25.0184 35.4194 25.4791 34.3076 26.315 33.4716C27.1788 32.6091 28.3131 32.1776 29.4467 32.1776C30.5803 32.1776 31.7146 32.6091 32.5776 33.4723C33.0344 33.9291 33.3778 34.4647 33.5965 35.0467C33.851 35.7243 33.9359 36.4627 33.8331 37.2086L33.7743 37.6402Z" fill="#ED2061"/>
<path d="M33.774 37.64L26.623 40.0405L26.3148 39.7323C25.7898 39.2072 25.4132 38.5734 25.2051 37.8827L33.5964 35.0466C33.8509 35.7242 33.9357 36.4626 33.833 37.2085L33.774 37.64Z" fill="#C71E54"/>
<path d="M10.5944 38.0149C10.5727 37.8649 10.503 37.726 10.3959 37.6188C10.2887 37.5116 10.1497 37.442 9.99974 37.4203C9.94424 37.4122 9.43893 37.3432 8.79402 37.4036C7.86993 37.49 7.11037 37.8068 6.59727 38.3197C6.08418 38.8327 5.76721 39.5923 5.68077 40.5163C5.6204 41.1612 5.68949 41.6663 5.69756 41.7218C5.71987 41.8758 5.79159 42.0133 5.89612 42.1179C6.00065 42.2225 6.13818 42.2941 6.29221 42.3165C6.34762 42.3246 6.85293 42.3935 7.49793 42.3331C8.42202 42.2467 9.18159 41.9299 9.69468 41.417C10.2078 40.904 10.5247 40.1445 10.6112 39.2205C10.6715 38.5755 10.6025 38.0704 10.5944 38.0149ZM26.7881 30.3974C26.8087 30.3451 26.9911 29.869 27.0794 29.2274C27.2061 28.308 27.0707 27.4962 26.6882 26.8798C26.3056 26.2632 25.6383 25.7816 24.7582 25.4868C24.1439 25.281 23.6362 25.233 23.5805 25.2282C23.4295 25.2152 23.2783 25.2513 23.1495 25.3313C23.0207 25.4112 22.9212 25.5305 22.8658 25.6716C22.8453 25.7237 22.6629 26.1999 22.5745 26.8415C22.448 27.7608 22.5832 28.5726 22.9657 29.1891C23.0759 29.3655 23.206 29.5285 23.3535 29.675C23.7396 30.0611 24.2626 30.37 24.8957 30.582C25.5099 30.7879 26.0176 30.8359 26.0734 30.8407C26.2244 30.8537 26.3755 30.8176 26.5043 30.7377C26.6331 30.6578 26.7327 30.5384 26.7881 30.3974Z" fill="#68C044"/>
<path d="M13.9791 25.4333L12.9063 23.7609C12.8056 23.6039 12.6467 23.4934 12.4645 23.4536C12.2823 23.4138 12.0918 23.448 11.9348 23.5487C11.7779 23.6494 11.6673 23.8083 11.6275 23.9905C11.5877 24.1727 11.6219 24.3632 11.7226 24.5202L12.7954 26.1926C12.8233 26.2362 12.8552 26.2757 12.8904 26.3108C13.0131 26.4332 13.1768 26.5059 13.3498 26.515C13.5229 26.5241 13.6933 26.469 13.8282 26.3603C13.9632 26.2515 14.0532 26.0967 14.081 25.9257C14.1089 25.7546 14.0726 25.5793 13.9791 25.4333ZM28.9821 23.5726L27.4731 22.2798C27.3315 22.1584 27.1475 22.0983 26.9615 22.1127C26.7756 22.127 26.603 22.2146 26.4817 22.3563C26.3604 22.4979 26.3003 22.6819 26.3146 22.8678C26.329 23.0537 26.4166 23.2263 26.5582 23.3477L28.0672 24.6405C28.2088 24.7618 28.3928 24.8219 28.5787 24.8075C28.7647 24.7932 28.9373 24.7056 29.0586 24.564C29.3113 24.2691 29.2777 23.8239 28.9821 23.5726ZM22.7433 37.0471L22.9325 35.2345C22.9479 35.0511 22.8907 34.8689 22.7734 34.7272C22.656 34.5854 22.4877 34.4953 22.3046 34.4762C22.1215 34.4571 21.9383 34.5106 21.7942 34.6251C21.65 34.7396 21.5566 34.906 21.5338 35.0886L21.3446 36.9012C21.3336 37.0054 21.3461 37.1107 21.3811 37.2094C21.4162 37.3081 21.4729 37.3977 21.5471 37.4717C21.641 37.5655 21.7597 37.6309 21.8892 37.6601C22.0188 37.6893 22.154 37.6813 22.2792 37.6368C22.4043 37.5924 22.5144 37.5134 22.5965 37.409C22.6787 37.3047 22.7296 37.1792 22.7433 37.0471Z" fill="#FDEDA5"/>
</g>
<defs>
<clipPath id="clip0_45_278">
<rect width="48" height="48" fill="white"/>
</clipPath>
</defs>
</svg>
